<svg xmlns="http://www.w3.org/2000/svg" viewBox="1646 340.6 291.8 145.7"><g fill="none" stroke-linecap="round" stroke-linejoin="round" stroke-width="2"><path stroke="#555942" d="m1667.1 395-1.5-.4-.4.1-.3 1a4.9 1-72.3 0 0-.5 5h.1a4.9 1-72.3 0 0 2.5-4.3l.3-1z" vector-effect="non-scaling-stroke"/><path stroke="#757b64" d="M1671.8 417a1 1 0 0 0-.6-.8l-7.4-1.6a.7.7 0 0 0-1 .6v.1a1 1 0 0 0 .6.9l7.5 1.5a1 1 0 0 0 .9-.5zM1667.6 411.6l1.2-.8v-.3l-.3-.6a3.4.8 58.8 0 0-2.4-2.5l-.2.1a3.4.8 58.8 0 0 1 3.4l.4.6z" vector-effect="non-scaling-stroke"/><path stroke="#757b64" d="m1675.7 415.7-1.6-.2a2.2.6 23.6 0 1-.3 0l-11.1-2.5a1 1 0 0 0-1.1.8c-.5 4 .8 8 1.3 12a2 2-74.7 0 0 .8 1.4q4.7 3.6 9.4 5.6a.5.5-83.7 0 0 .7-.6q-1.5-8.3 2-16a.3.3 16.9 0 0-.1-.5" vector-effect="non-scaling-stroke"/><path stroke="#8e9287" d="M1678.2 450.5a.6.6 0 0 0-.7-.6l-17 1a.6.6 0 0 0-.7.6.6.6 0 0 0 .7.6l17-.9a.6.6 0 0 0 .7-.7" vector-effect="non-scaling-stroke"/><path stroke="#757b64" d="M1671 429q.2-.7-.6-1-2.5-.7-2.7-.1t2.2 1.5q.8.4 1-.4M1681.8 394.8a1 1 0 0 0-.7-.8l-9.5-.6a1 1 0 0 0-.8.7 1 1 0 0 0 .7.8l9.5.6a1 1 0 0 0 .8-.7" vector-effect="non-scaling-stroke"/><path stroke="#e4e4d5" d="M1666.7 393q2.1-.8 3.7-2.8a2 2-76.7 0 1 1-.6l8-1.6q2.9-.5 3.8-1.2 5-3.5 11.6-9.5l.8-.4 3-.4" vector-effect="non-scaling-stroke"/><path stroke="#8c8e80" d="M1681.4 438.1a.4.4 0 0 0 .7-.2q-.2-1.3.6-1.4 1.5-.2 2.1.2a1.2 1-48.2 0 1-.1 1.7l-2.3 1.7a1 1 74.8 0 0-.5 1q0 1.3 1.2 3.5a.6.6 0 0 0 1 0l2.8-7a1.6 1.5-53.9 0 0-.2-1.6q-1.6-1.8.3-3.9a1 1-43 0 0 0-.8c-1.5-2-1.2-4.9-1.6-7.5a.8.8-29.4 0 0-1.3-.4q-1 1.3-.8 2.1a1.5 1.4 13.4 0 0 .5.7q1 1 1 1.9a.6.6 0 0 1-1 .3l-1.1-1.5a.6.6 0 0 0-1 .2l-.3.7a1 1 21.9 0 0 .6 1.4l2.2.9a1 1-86 0 1 .7.8v.2a.5.5 0 0 1-.6.6l-2.9-1.1a.6.6 8.1 0 0-.8.6v.6a1 1-88.7 0 0 1 1l2.2.4a1 1-88.6 0 1 .9.9v.3a.7.7 0 0 1-.9.8l-2.4-.6a.5.5 0 0 0-.7.4q0 1.5.7 3.1" vector-effect="non-scaling-stroke"/><path stroke="#555942" d="M1684.8 440.6a.9.6-39.6 0 0-1 0 .9.6-39.6 0 0-.4 1 .9.6-39.6 0 0 1 0 .9.6-39.6 0 0 .4-1M1689.8 415.4q-1.7-1.1-3.5-.6-5.3 1.3-7.4 7a.1.1 0 0 0 0 .2l.4.3.4-.1c2.2-3.8 3.9-6.3 9-6a2 2 0 0 1 1.5.9l2 2.6a.5.5 0 0 0 .8.1l.3-.2v-.4l-3-3.8q-.3-.3-.3-.1a.1.1 0 0 1-.2 0" vector-effect="non-scaling-stroke"/><path stroke="#8c8e80" d="M1688.5 446.6q-.2 1-1.7 1a1.5 1.5 16.7 0 1-1.3-2.2q.9-1.4 1.2-3.7v-.2l3.2-6.7a1 1-48.9 0 0-.1-1l-2.6-4-.1-.4.1-6.3a1 1 0 0 1 2-.4l1.9 4.5.5.4q1 .4.8 1.6a1 1 25.4 0 0 .4 1l.3.3a1 1-31.6 0 1-.2.8l-2 1.1a.8.8 0 0 0 .5 1.5l3.6-.4a1 1 0 0 0 .5-.7c-1-3.4-2.6-8.4-5.2-10.7l-1-.3q-.3 0-.6-.4a2 1.8 59.6 0 0-2.2-.7q-1.9.8-4 2.7l-.5.7-2 4.8q-1.4 8 1.1 14.6c2 5 5 7.6 10.3 4a1.3 1.3 0 0 0 0-2q-.2-.1-1.6.4" vector-effect="non-scaling-stroke"/><path stroke="#757b64" d="M1685.5 395.3a1.9.7-174.5 0 0 1.8.8 1.9.7-174.5 0 0 2-.5 1.9.7-174.5 0 0-1.8-.8 1.9.7-174.5 0 0-2 .5" vector-effect="non-scaling-stroke"/><path stroke="#8c8e80" d="M1708.3 364.1q-7.5 5.2-10.1 7.6-8.1 7.4-15.2 13.4a4 4-71.1 0 1-1.9 1q-5.7 1.1-10.3 2.2-4 1-4 4.7" vector-effect="non-scaling-stroke"/><path stroke="#757b64" d="m1689.8 445.9-1.1-4.9a.2.2 0 0 0-.4 0q-1.2 3.8.2 5.6" vector-effect="non-scaling-stroke"/><path stroke="#e4e4d5" d="m1688.5 446.6 1.3-.7" vector-effect="non-scaling-stroke"/><path stroke="#8e9287" d="m1688.9 425.3-.4 4a2 2 21.4 0 0 .7 1.4l.5.4a.5.5-68.7 0 0 .8-.4l.3-3.5a1 1 0 0 0-.2-.7q-.5-.3-1-1.3a.4.4 35.1 0 0-.7.1" vector-effect="non-scaling-stroke"/><path stroke="#8c8e80" d="m1690.4 438-1.3.8-.1.4.7 1.2a5.6.8 59.6 0 0 3.5 4.4l.4-.3a5.6.8 59.6 0 0-2.1-5.2l-.7-1.2z" vector-effect="non-scaling-stroke"/><path stroke="#757b64" d="m1691.6 397.1 2.3-6v-.1a1.8 1.7 20.3 0 0-2.3 1l-1.1 3a1.8 1.7 20.3 0 0 1 2.2zM1694 406.5q-.3-3.1-1.7-5.5a.7.7 28 0 0-1.2.4q.2 3.3 2.5 5.3" vector-effect="non-scaling-stroke"/><path stroke="#8c8e80" d="M1695 434.7q-1 .6-3.7.7a1 1 0 0 0-.4 1.7q.3.2 1.7-.2a1 1 0 0 1 .9.3q.3.7.7 1 1 .6 1.3-.7t.1-2.5a.4.4 0 0 0-.6-.3M1693.3 441.9a.6.6 0 0 0 1.1-.2q.3-2.7-.9-3a.8.8 87.1 0 0-.9 1.2z" vector-effect="non-scaling-stroke"/><path stroke="#555942" d="m1694 406.5-.4.2" vector-effect="non-scaling-stroke"/><path stroke="#adaf96" d="m1693.6 406.7.6 1.4M1695.2 407.2q-.7-.1-1.2-.7" vector-effect="non-scaling-stroke"/><path stroke="#555942" d="M1694.2 408q0-.8 1-.8M1693.3 452.9h.4q3-4 3.7-5.3 1.6-2.9 1.6-9a.3.3 0 0 0-.5-.2c-1.2 1.3-1.3 4.6-1.7 7.3l-.1.3-3.8 6.4.1.3z" vector-effect="non-scaling-stroke"/><path stroke="#757b64" d="M1694.2 398a4.3 2.7-176 0 0 4.1 3 4.3 2.7-176 0 0 4.5-2.5 4.3 2.7-176 0 0-4-3 4.3 2.7-176 0 0-4.6 2.4" vector-effect="non-scaling-stroke"/><path stroke="#555942" d="M1696.4 397.9a2.4.9-175.5 0 0 2.3 1 2.4.9-175.5 0 0 2.5-.6 2.4.9-175.5 0 0-2.4-1 2.4.9-175.5 0 0-2.4.6" vector-effect="non-scaling-stroke"/><path stroke="#757b64" d="M1705 429.8q-.8-5.2-2.2-8.3l-4-9q-.7-1.4-3.6-5.3" vector-effect="non-scaling-stroke"/><path stroke="#fdfbf8" d="M1693.2 456.7q7.3 3 14.3 2.7" vector-effect="non-scaling-stroke"/><path stroke="#8c8e80" d="m1698.6 376.5 6.4-6.3" vector-effect="non-scaling-stroke"/><path stroke="#8e9287" d="M1702 383.4a.9.6-110 0 0-.3 1.1.9.6-110 0 0 .9.6.9.6-110 0 0 .3-1 .9.6-110 0 0-1-.7" vector-effect="non-scaling-stroke"/><path stroke="#555942" d="M1705 370.2q.3-.2.4 0 .3.4-.1.7-2.6 2-4.1 4.3c-2.2 3.3-4.6 5.8-6.6 8.4q-.9 1-1 3.3a.5.5 0 0 0 .5.6h.3a1 1 1.3 0 0 .7-.6q0-1.8.7-2.6 3.6-4.6 7.6-8.7l7.6-7.8" vector-effect="non-scaling-stroke"/><path stroke="#8e9287" d="M1708.6 372.2q-2.7 1.7-4.3 3.7-4.2 5-7.8 10.2a1 1 0 0 0 .6 1.4l4.3.5a2 2-75.1 0 0 1.6-1l6-14.6a.2.2 0 0 0-.4-.2" vector-effect="non-scaling-stroke"/><path stroke="#8c8e80" d="M1705 429.8q.2 2 1 2.5" vector-effect="non-scaling-stroke"/><path stroke="#c3c2b3" d="m1709 366.2-4 4" vector-effect="non-scaling-stroke"/><path stroke="#e4e4d5" d="m1709 366.2-.7-2" vector-effect="non-scaling-stroke"/><path stroke="#adaf96" d="m1711 367.8-.3.1a.7.7 0 0 1-1-.5q0-1-.6-1.2" vector-effect="non-scaling-stroke"/><path stroke="#757b64" d="M1698.6 376.5q-4.6 5.3-6.2 8.5-1.1 2-.1 3 .6.8 3 1l33.4 3.8a.7.7 0 0 1 .6 1q-2.1 4-1.7 8 .1 1.9-.4 3.9-.4 1.1-.3 4l.1 8.9a.4.4 2.6 0 1-.4.4l-13.1-1.4a1 .8 51.3 0 1-.2 0q-3.4-1.2-7.6-1.2a1 1-77 0 0-1 .7.5.5-73.2 0 0 .4.7l21.4 2.8a1 1 3.9 0 1 .5.6l.2 12.2v.2l1.6 4.4a.3.3 84.4 0 1-.4.4q-8-1.2-18.6-2.5-2.6-.3-3.8-3.6" vector-effect="non-scaling-stroke"/><path stroke="#c6c6ba" d="M1711.4 376.6q1.2-.8 1.8-2.2a3.1 3-15.1 0 1 .5-.9q2-2.3 4.3-3.6l.1-.4-.3-.1c-3.4 1.4-4.8 3.8-6.8 6.9a.2.2 0 0 0 .3.3" vector-effect="non-scaling-stroke"/><path stroke="#e4e4d5" d="M1706 432.3q1.6-.8 2.3-.7 8.4 1.4 17.8 2.2a1 1 0 0 0 .5-.4q0-1.4-1.4-1.3-6.5.2-11.8-2a4.2 4 55.8 0 0-1.5-.2l-6.8-.1" vector-effect="non-scaling-stroke"/><path stroke="#c6c6ba" d="M1720.4 382.5a2 .7-45.9 0 0-2 1 2 .7-45.9 0 0-.9 2 2 .7-45.9 0 0 2-1 2 .7-45.9 0 0 .9-2" vector-effect="non-scaling-stroke"/><path stroke="#8e9287" d="M1733.6 365.3q-9.3 0-18.7 2.4-2 .4-2.8 2.2-4.4 8.4-6.7 17.9a1 1 0 0 0 .4.6l21 2a1 1 8.6 0 0 .8-.7q2.7-12.9 6.5-23.7a.5.5 0 0 0-.5-.7M1707.5 459.4q12.8.9 25.2-.6" vector-effect="non-scaling-stroke"/><path stroke="#8e9287" d="m1714.8 374.8 1.3-.7q4.5-4.1 9.6-5.4a1 1-15.7 0 0 .4-.6l-.1-.4a1 1-18 0 0-1-.4l-5.4 1.7a1 1 0 0 0-.7 1v.1a2 2 75.8 0 1-.7 1q-3.5 3-3.7 3.4a.2.2 0 0 0 .3.3" vector-effect="non-scaling-stroke"/><path stroke="#8c8e80" d="M1732.7 458.8q.4-.3.2-.6-.4-.4-1-.4-12 0-24.4 1.6M1714.5 451.5a6.2.8-178.8 0 0 6.3.8 6.2.8-178.8 0 0 6.2-.6 6.2.8-178.8 0 0-6.2-.9 6.2.8-178.8 0 0-6.3.7" vector-effect="non-scaling-stroke"/><path stroke="#8e9287" d="M1723.1 383.7a1.6 1-75.5 0 0-1.3 1.3 1.6 1-75.5 0 0 .6 1.8 1.6 1-75.5 0 0 1.3-1.3 1.6 1-75.5 0 0-.6-1.8" vector-effect="non-scaling-stroke"/><path stroke="#adaf96" d="M1721.8 399.5a1.7.8-164.2 0 0 1.4 1.3 1.7.8-164.2 0 0 1.8-.4 1.7.8-164.2 0 0-1.3-1.2 1.7.8-164.2 0 0-1.9.3" vector-effect="non-scaling-stroke"/><path stroke="#e4e4d5" d="M1730.7 454.8a3.6.9-3.8 0 0-3.7-.7 3.6.9-3.8 0 0-3.5 1.2 3.6.9-3.8 0 0 3.7.6 3.6.9-3.8 0 0 3.5-1.1" vector-effect="non-scaling-stroke"/><path stroke="#8c8e80" d="M1728.6 432.2q-.6 2.2 0 2" vector-effect="non-scaling-stroke"/><path stroke="#8e9287" d="M1740.6 461.9a1 1 0 0 0-.7-.7l-14 .5a1 1 0 0 0-.7.7 1 1 0 0 0 .7.7l14-.5a1 1 0 0 0 .7-.7" vector-effect="non-scaling-stroke"/><path stroke="#757b64" d="M1666.7 393q2.2 0 2.2 2.3-.1 5.3-4.4 8.2a1 1 75.8 0 0-.6 1l-.6 6.7.3.5 9.3 2.1 1.1.4 1.5.8a1 1-57.9 0 0 1-.2c2.3-3 5-5.3 9.3-4.9 12.7 1.3 15.9 18.5 16.6 28.4a2 2 2.1 0 0 2 2q37.5 5.5 66.6 9.4 4 .6 10 2a.7.7 0 0 0 .8-.8q-1.6-8.4.4-16.2c2.5-10.3 9.3-16.8 20.3-14.9" vector-effect="non-scaling-stroke"/><path stroke="#8c8e80" d="m1732.8 391.4.3-.2 4-20.1q.2-1.1 1.7-5.4a1 1 0 0 0-.7-1.2l-.7-.1a1 1 0 0 0-1.3.8q-.8 3-2.7 8.4-2 5.3-4.1 16.9l.2.3z" vector-effect="non-scaling-stroke"/><path stroke="#757b64" d="M1757.3 361.5q3 1.3 4.8 2.8a.4.4 0 0 1-.4.7q-8.8-4.5-18.9-4.3l-1.1-.2q-4-1.4-8.7-1-13.3.8-24.7 4.6M1694.2 408l5.2 9.3q.3.4.3 1.7l.2 1c2.2 3.6 2.6 6.4 4 12a2.5 2.4 16.7 0 0 .7 1.2l3.1 3.1a4 4 70.7 0 0 2 1l62.1 8.2a2.3 2.3 4.3 0 0 2.7-2.3l.7-36.7a2.2 2 56.2 0 1 0-.4q.8-2.9 1.3-5.6.5-2.2-.3-3.1a.7.7-75.1 0 0-1.3.7q.8 2-.2 4.6-.7 2-.8 4.2c-.5 12-.4 20.6-1 31.1q-.2 3 .3 5.4a.6.6 0 0 1-.6.7l-41.4-5.5a1 1 80.7 0 1-.7-.5l-1.8-3.8" vector-effect="non-scaling-stroke"/><path stroke="#757b64" d="M1734.7 405.5q1.3-.6 4.2-.8a2 1.8 76.2 0 0 1.4-2.7c-.6-1.5-1.8-1.6-3.4-2.1q-3.5-1.1-6 1.8a1.3 1.3 0 0 0 .3 2l2.5 1.7a1 1-38.5 0 0 1 0" vector-effect="non-scaling-stroke"/><path stroke="#555942" d="M1733.4 402.3a2.3.7-177.8 0 0 2.2.8 2.3.7-177.8 0 0 2.3-.6 2.3.7-177.8 0 0-2.3-.9 2.3.7-177.8 0 0-2.2.7" vector-effect="non-scaling-stroke"/><path stroke="#fdfbf8" d="M1732.7 458.8q3.5 1.2 7.5 0" vector-effect="non-scaling-stroke"/><path stroke="#c3c2b3" d="M1735 453.1v1.3l.3.2h3.3a4.4.8-.2 0 0 4.3-.8v-.2a4.4.8-.2 0 0-4.3-.8h-3.3z" vector-effect="non-scaling-stroke"/><path stroke="#8c8e80" d="m1785.7 469.7 6-.2a.4.4 0 0 0 .3-.6q-.4-.5-1.2-1a2.1 2 84.3 0 1-.7-.5q-4.9-6-5.7-13.4a1 1 0 0 0-.6-.4q-1.8.5-4 0-4.3-1.1-8-1a1 1 0 0 0-1 .4l-.6 1-.7.4q-7.5.3-9.3 0l-5.4-.7c-4-.4-9.5-2.2-13-2l-7 .2-.3-.3v-.3a.1.1 88 0 1 .1-.2l13.2-.4a5.6 5.3 49.5 0 1 1.5.2l4.5 1a.5.5 0 0 0 .5-.6l-1-1.2a2 2 74.4 0 0-1.3-.8l-42-6-.4.2-3.6 8.8h.1q3.5-.4 7.1.7c2.8.8 4 .8 7.3 1.1a.4.4 0 0 1 0 .7q-3.5.6-6.8-.3-3.8-1-8.7-1.4a2 2 18.8 0 0-1.3.7l-.3.4a.5.5-71.9 0 0 .4.7l6.7.2a.7.7 0 0 1 .7.9v.3a.4.4 0 0 1-.5.3h-17.5" vector-effect="non-scaling-stroke"/><path stroke="#757b64" d="M1728.6 432.2v-30.6a1.6 1.5 54.3 0 1 .1-.4l1.7-7.1a1.4 1.4 10.3 0 1 1.5-1q15 1.8 25.6 3.3c2.8.4 6.2.1 8 .2a1 1 0 0 1 .9.6l.5 1.5a.8.8 0 0 0 1.4 0q.5-.8 1.5-.9 3.6-.3 5.1-2.7a1 1 0 0 0 0-1q-1.5-3.6-5.5-10.4-5-8.7-7.2-11.8-2.7-3.7-5.9-5.2-8.2-3.6-19.3-3.4l-1.4-.2a5.3 5-33.9 0 0-1.3-.2q-10.3-.3-20.5 2.2l-.7.5-2.1 2.2" vector-effect="non-scaling-stroke"/><path stroke="#c6c6ba" d="M1740.2 458.9q6.8 2 13.8 1.5" vector-effect="non-scaling-stroke"/><path stroke="#e4e4d5" d="M1728.7 434.3q6.5.3 12.9 1.4 3.5.7 4.9.6 2.8-.2 5 .5 2.1.7 6.2.8 6.3.2 12 2.1l.2-.2.1-.3-.2-.4q-6.4-1.6-7.8-1.8c-6.9-.6-12.8-2-19.4-2.9l-14-1.9" vector-effect="non-scaling-stroke"/><path stroke="#8e9287" d="m1755 371.1.3-.4a1 1 0 0 0-.4-1q-2-.9-6.1-1.3-2.2-.3-4.2 1.1a1.2 1.2 0 0 0-.2 1.8q.2.2 1.2.3" vector-effect="non-scaling-stroke"/><path stroke="#757b64" d="M1771 425.7a1 1 0 0 0-.6-.8l-40.2-5.4a1 1 0 0 0-.9.7 1 1 0 0 0 .7.9l40.2 5.3a1 1 0 0 0 .8-.6" vector-effect="non-scaling-stroke"/><path stroke="#c6c6ba" d="M1745.6 371.6q1.5.3 3 1.3l1 .4q3.7.4 5.4-2.2" vector-effect="non-scaling-stroke"/><path stroke="#555942" d="M1755 371.1q-2-1.3-4.2-1.2l-.1.1v.3l-.2.1q-.3.1-.4-.3a1 1 88.3 0 0-.7-.6q-2.6-.4-3.8 2" vector-effect="non-scaling-stroke"/><path stroke="#8e9287" d="m1751.9 393-1-2v-1q.4-2 2.4-3 6.5-3.3 12.8 0a.4.4 0 0 0 .6-.3q.6-3.2-1.2-6.2c-2.5-4.2-5.4-10-9.3-11.8q-6.4-2.9-14-3.2a2 2 9.9 0 0-1.8 1.3q-3.8 12-5 24.1a.4.4 0 0 0 .3.5l15.7 2.3a.4.4 83.1 0 0 .5-.6M1749.5 463.8l-6.7.4a1 1 0 0 0-.4.6v.3l.2.1 18.6-.9" vector-effect="non-scaling-stroke"/><path stroke="#fdfbf8" d="m1754 460.4 2.8.6a1 1 0 0 1 .4.5q0 .5.3 1l-.1.4-8 1" vector-effect="non-scaling-stroke"/><path stroke="#adaf96" d="M1757.2 403.3q-.8-.4-1.5-.2a.5.5 48.7 0 0 0 1q.5.1 1.4-.2a.3.3 0 0 0 0-.6" vector-effect="non-scaling-stroke"/><path stroke="#c3c2b3" d="M1757.5 393.3q.2.4 0 .8 0 .3-.6.4" vector-effect="non-scaling-stroke"/><path stroke="#8c8e80" d="m1757.5 393.3-2-.7a.7.7 0 0 1-.5-1l.2-.1 12.1 1.6a.9.9-15 0 0 .9-1.5l-1.6-2a5 5-16.4 0 0-3.7-2q-5-.4-7 .3c-4.4 1.6-3 6.3 1 6.6" vector-effect="non-scaling-stroke"/><path stroke="#c3c2b3" d="M1754 460.4q12.5-.2 25 .2 1.7.1 2.5-.3a.5.5 0 0 0-.3-.9q-2.7.5-10 0c-7-.4-11.2-.2-20.3-.2q-2.2 0-4.8-.3l-4.9-.5q-1.7-.1-1 .5" vector-effect="non-scaling-stroke"/><path stroke="#555942" d="M1757 394.5q4.2 1.5 8.1.2a.3.3 0 0 0 0-.7l-7.6-.7" vector-effect="non-scaling-stroke"/><path stroke="#c3c2b3" d="M1776.2 456.7a.5.5 0 0 0-.5-.6l-29.2-.2a1 1 0 0 0-.5.5 1 1 0 0 0 .5.5l29.2.3a1 1 0 0 0 .5-.5" vector-effect="non-scaling-stroke"/><path stroke="#8c8e80" d="m1761.2 464.3 18-.4a1 1 88.7 0 0 .4-.5l-.4-.4-29.7.8" vector-effect="non-scaling-stroke"/><path stroke="#757b64" d="M1772.2 406.3v-.8l-.1-.3-6.5-1a6.7.5 8.2 0 0-6.7-.4v.3a6.7.5 8.2 0 0 6.5 1.4l6.5 1a.2.2 0 0 0 .3-.2" vector-effect="non-scaling-stroke"/><path stroke="#fdfbf8" d="m1761.2 464.3 8.1.6a1 1-11.9 0 1 .8.4l.4.9a.5.5 0 0 1-.3.7l-6.3.7" vector-effect="non-scaling-stroke"/><path stroke="#8e9287" d="M1764 467.6q-.9 0-1 .3a.4.4 0 0 0 .2.6l11.5.3" vector-effect="non-scaling-stroke"/><path stroke="#757b64" d="m1771.2 390-1.7-3.6h-.2a2 1.7 63.7 0 0-.6 2.5v.2a2 1.7 63.7 0 0 2.4 1 .1.1 0 0 0 .1-.2" vector-effect="non-scaling-stroke"/><path stroke="#e4e4d5" d="M1783.8 364q-2.1-1.3-4.5-1.4a1 1-13.2 0 1-.8-.5v-.1a1 1 0 0 0-1-.6q-10-1-20.2 0" vector-effect="non-scaling-stroke"/><path stroke="#757b64" d="M1769.8 392.7a1.7 1.2-137 0 0 .5 2 1.7 1.2-137 0 0 2 .4 1.7 1.2-137 0 0-.4-2 1.7 1.2-137 0 0-2-.4" vector-effect="non-scaling-stroke"/><path stroke="#8e9287" d="m1774.6 371.4-1.4-.3a.8.8 0 0 1-.1-1.5q1.6-.6 3.6 0h.7l1-.6a.4.4 0 0 0-.1-.7h-6a1.2 1.2 0 0 0-1.1 1.8q.3.7 1.6 2.2.4.5 1 .3l1-.7a.3.3-58.4 0 0-.2-.5" vector-effect="non-scaling-stroke"/><path stroke="#8c8e80" d="m1774.7 468.8 14.1-.6a.4.4 89.3 0 0 .4-.4.4.4 90 0 0-.4-.5l-24.9.3" vector-effect="non-scaling-stroke"/><path stroke="#757b64" d="M1777.9 445.7a1 1 0 0 0-.7-.6 1 1 0 0 0-.7.6 1 1 0 0 0 .7.7 1 1 0 0 0 .7-.7" vector-effect="non-scaling-stroke"/><path stroke="#8c8e80" d="M1783.8 364q15.6-.7 31.2.8l.3-.2v-.3a1 1-81.3 0 0-.4-.6c-8.4-1.6-15.2-3.3-23.4-4q-25.1-2.6-50.2-1.5a.1.1-40.3 0 0 0 .3l16 3" vector-effect="non-scaling-stroke"/><path stroke="#757b64" d="M1776.7 426.7a2.6.8-173.2 0 0 2.5 1.1 2.6.8-173.2 0 0 2.7-.5 2.6.8-173.2 0 0-2.5-1.2 2.6.8-173.2 0 0-2.7.6" vector-effect="non-scaling-stroke"/><path stroke="#fdfbf8" d="M1774.7 468.8q6-.7 11 .9" vector-effect="non-scaling-stroke"/><path stroke="#8e9287" d="M1784.5 382.5q-1.2-.6-2 .3-1.8 2-1.2 4.9a.5.5 0 0 0 .8 0q.7-1.5.9-3.2.1-1 1.2-1" vector-effect="non-scaling-stroke"/><path stroke="#757b64" d="M1791.5 408.6a1 1 0 0 0-.6-.8l-13.1-2a1 1 0 0 0-.9.6 1 1 0 0 0 .6 1l13.2 2a1 1 0 0 0 .8-.7M1784.2 383.5q.3-.4.3-1" vector-effect="non-scaling-stroke"/><path stroke="#e6e8dc" d="M1785.6 382q-.5.4-1 .5" vector-effect="non-scaling-stroke"/><path stroke="#adaf96" d="M1790 381q-.9-.2.1-2.4a1 1-60.8 0 0-.3-1.3l-.2-.2a.8.8-63.3 0 0-1.3.4q-1 3.2-1.7 4.4-.3.5-1 0" vector-effect="non-scaling-stroke"/><path stroke="#c6c6ba" d="M1790 381q1.2-2 1.3-3.3a2.3 2.3-.1 0 0-2.5-2.5c-2.2.2-2.7 5-3.2 6.8" vector-effect="non-scaling-stroke"/><path stroke="#757b64" d="M1813.6 403q-1.4.9-2.7.4-5.5-1.8-9.7-2.5c-4.5-.8-8-2-12.4-2.7a5.4 5.3-24.3 0 1-1.7-.7l-5.2-3a4.2 4.1 88.3 0 1-1.5-1.4q-5.1-8.3-9.8-16.7-2.4-4.2-6.3-8.5a2 2 0 0 1 .3-2.6q.7-.6 1.5-.7l17.7-.5" vector-effect="non-scaling-stroke"/><path stroke="#e6e8dc" d="m1784.2 383.5.5.7a1 1-52.4 0 1 .1 1q-.8 1.7-.9 3.6a1.2 1 78.8 0 0 1.6 1.2q.5-.3.5-1a.7.7 23.9 0 1 1.2-.3q1.3 1.1 3.2 1.5a.6.6 0 0 0 .8-.5q.2-1 1-1.3a.6.6 0 0 1 .7.6v.4a1 1-87.6 0 0 .6.7h3.4M1791.9 383.6l-1.3 1a1 1 0 0 1-1.4-1.1l.8-2.5" vector-effect="non-scaling-stroke"/><path stroke="#555942" d="M1791 441h.6" vector-effect="non-scaling-stroke"/><path stroke="#c3c2b3" d="m1792.4 437.7-1.4 3.3" vector-effect="non-scaling-stroke"/><path stroke="#8e9287" d="M1871 466.6q5.4 0 18-1.3 9.4-1 24 1 .7.2 5 .3l.2-.2v-.3l-.2-.2-5.4-.7-.6-.2q-2.2-1.3-5.2-1.3h-9.6a.4.4-59.8 0 1-.2-.7q5.4-3 7-8.5a1 1 0 0 1 1-.9q6-.7 12.3-2.6c3.3-1 7-4 3.8-7.6a1 1 34.9 0 1-.1-.9q1.8-5 2.5-5.7l.5-1.2q.6-4.7-.2-8.5a2.7 2.6-73.5 0 0-.7-1.3l-3.3-3.3-.4-.8q0-4-1.5-8.9c-.8-3-5-4.6-7.3-6.1a17 17 71 0 0-3.4-1.7q-11.3-4-12.6-4.3-18.5-5.2-38.7-8.7a1.5 1.5 0 0 1-1-2.3c1.8-3.1-3-5.7-5.6-6.2-1.5-.3-2.3 1.2-4-.5q-10.5-10.2-23.8-18.4-3.6-2.2-8.3-3.3-11-2.5-22-3.7-34.9-3.7-69.6.8c-3.6.5-9.2 1.5-12.2 3a64 64 0 0 0-13.4 9.3q-7.3 6.7-14.1 12.5a5.4 5.3 18.5 0 1-2.4 1.2q-6 1.2-9.8 2.3c-4 1.2-5.5 5-6.9 8.5l-.3 1.7q-.2 4.8-.9 12 0 .6-1.5 2.4a3 3 66 0 0-.6 1.6c-.2 4.7.8 9.9 1.6 13.3 1.2 4.9 9.4 7.8 13.7 9a1 1 8.9 0 1 .7 1c0 5.3 1.4 8.7 3.5 14l.5.5q1 .6.6 1.4l-.5.4-10.4.7h-.1v.4a1 1 0 0 0 .4.5q5.9.3 11.6-.5.7-.1 1.4.6a.3.3 0 0 1-.2.4l-3.1.3a1 1 0 0 0-.5.7 1 1 81.8 0 0 .8.6c4.7-.2 9 1 13.7.5" vector-effect="non-scaling-stroke"/><path stroke="#c3c2b3" d="M1793.2 438.7q-.8.8-1.6 2.4" vector-effect="non-scaling-stroke"/><path stroke="#555942" d="M1793.2 438.7q-.6-.2-.8-1" vector-effect="non-scaling-stroke"/><path stroke="#8c8e80" d="M1795.8 459.3q.4 1 .3 1.8a.4.4 22.2 0 1-.6.3q-3.7-3-4.5-8a.3.3-63.1 0 1 .7-.2l.8 1a1 1 0 0 0 .8 0q2.5-2.1 3.5-4.2a.8.8 0 0 0-.9-1.1l-3.8.8-.5.4-.3.7a.5.5-41.4 0 1-.8 0q-.6-2.2-.2-3.7a.5.5 0 0 1 .8-.2q2.2 1.5 4.7 0a.8.8 0 0 0-.2-1.4q-1.8-.5-4.3-.4a1 1-8.2 0 1-.7-.5q-.5-1.8.4-3.6" vector-effect="non-scaling-stroke"/><path stroke="#757b64" d="M1791.9 383.6q-.6.8 1.6 1.9 1 .5 1.6 2.4.3 1.1-.6 1.3a.5.5 0 0 0 0 1h2.4" vector-effect="non-scaling-stroke"/><path stroke="#8c8e80" d="m1791.6 441 .2 1.3a1 1-87.7 0 0 .6.7l4 1.6a.7.7 0 0 0 .7-1l-4-5" vector-effect="non-scaling-stroke"/><path stroke="#8e9287" d="M1797 390.1q-.7-5.6-5.1-6.6" vector-effect="non-scaling-stroke"/><path stroke="#e4e4d5" d="m1790.7 418.3 8.1-1.4v-.1a2.6 1.9-9.7 0 0-2.8-1.5l-3.2.6a2.6 1.9-9.7 0 0-2.2 2.2.1.1 0 0 0 .1.2" vector-effect="non-scaling-stroke"/><path stroke="#757b64" d="M1796.3 458q-.5.3-.7-.3l.7-3a.5.5 0 0 0-.7-.6q-.7.4-1.3 1.2a1 1-31.7 0 0-.3 1q.3 1.8 1.8 3" vector-effect="non-scaling-stroke"/><path stroke="#e4e4d5" d="M1795.8 459.3q.7-.6.5-1.2" vector-effect="non-scaling-stroke"/><path stroke="#8c8e80" d="M1801.6 368.5a1 1 0 0 0-.5-.5l-6.3-.1a1 1 0 0 0-.5.4v.2a1 1 0 0 0 .5.5l6.3.1.4-.4z" vector-effect="non-scaling-stroke"/><path stroke="#8e9287" d="M1792.5 367.2a1.1 1.1 40.8 0 0 .2 2q4.6 2.1 10 .9a1.3 1.3 0 0 0 .9-2v-.2a3 3 0 0 0-3-1.3q-2.6.3-6.3.2-1 0-1.8.4" vector-effect="non-scaling-stroke"/><path stroke="#8c8e80" d="m1799.6 441.8-2-6.8-.3-.1a3.5 1.2 72.9 0 0-.2 3.7l.1.3a3.5 1.2 72.9 0 0 2.2 3h.1zM1799.1 462.6q.6 0 1.3-.3a.5.5 0 0 0 .3-.7l-.4-.6-.2-.7q0-5.2-1-5.2-1.1 0-1 5.2l-.1.7-.4.6a.5.5 0 0 0 .3.8z" vector-effect="non-scaling-stroke"/><path stroke="#8c8e80" d="M1792.4 437.7q.5-2.1 2.2-3.5a.4.4 84.4 0 1 .6.5q-.5 1-.7 2.5l.3.7 4.2 5.4a1 1 0 0 1 0 .8q-1.3 1.3-1.4 3.7l.2.8q1.6 2.7 4.3 1a1 1 77.7 0 0 .6-.8q.4-3.6-3-4.8a1 1 13.8 0 1-.4-.7q0-.5.6-1 .4-.3.4-1.3 0-2.4.7-8.2a.5.5 0 0 1 .8-.4l.8.8a2 2-59.8 0 1 .5 1.9q-1.2 4.2-1.4 8.2a.6.6 0 0 0 1 .1q1.1-3.6 4.2-6a1 1 0 0 0 .2-.8c-2.3-4.2-6.7-7.2-11.4-4.4q-4.3 2.5-6 8.2a24 24 0 0 0 2.8 20c3.5 5 9.6 6 13.6 1q4.1-5 4.3-11.4a1 1-90 0 0-.6-.6h-5.8a.6.6 89.6 0 0-.7.7 1 1 2.4 0 0 .9 1q2.4.6 3.8 2.1a1 1 0 0 1 .1 1l-.1.3a.4.4 0 0 1-.8 0q-1-1.5-3-2.3a.2.2 0 0 0-.3.2q1.5 2.5 2.5 2.7l.6.4q.5 1 .5 2.4a.3.3 0 0 1-.5.2l-3.7-4.3c-.6-.8-.3-1.4-.5-2.2a1 1 83.4 0 0-.8-.6q-1.1-.2-1.6 1.2a.4.4 0 0 1-.7.1l-1-1a1 1 38.3 0 0-.9 0q-.5 1-.1 1.8v.8l-1.4 4.2" vector-effect="non-scaling-stroke"/><path stroke="#c3c2b3" d="M1798.6 433.4q0 .4.6 1.1a.3.3 0 0 0 .5-.1q.3-1 .1-1.2a.7.7 36.8 0 0-1.2.2" vector-effect="non-scaling-stroke"/><path stroke="#555942" d="M1787.5 437.2q2.5-6.5 3-7 6.7-7 14.9-2.6l.9.7q7.4 8.5 7.5 18.2 0 7-.7 11.2-.7 3.3-5.3 9l-.2.2-3.3 2.1a.3.3-42.7 0 0 0 .5l.5.4q9.9-6.1 10.5-17.4.5-11-3.8-19.8-3.7-7.4-10.9-7.7c-6.3-.2-11.2 3.8-13.3 9.4a5 4.5 74.2 0 1-.4.9q-1.2 2-2.3 5a.2.2 0 0 0 .5.2q1-2 1.8-2.6z" vector-effect="non-scaling-stroke"/><path stroke="#8c8e80" d="M1801.2 453.7a.3.3 0 0 0-.5.3l1.5 7.5a1 1 69 0 0 1.3.5l.4-.2a1.2 1.2-32.4 0 0 .4-1.8q-1.5-2.2-2.1-5l-.4-.7z" vector-effect="non-scaling-stroke"/><path stroke="#adaf96" d="M1796.2 407.8a7.3.9-169.5 0 0 7 2.2 7.3.9-169.5 0 0 7.4.5 7.3.9-169.5 0 0-7-2.2 7.3.9-169.5 0 0-7.4-.5" vector-effect="non-scaling-stroke"/><path stroke="#8e9287" d="M1842.6 391.2h3.7a.6.6 0 0 0 .4-1q-10.3-10.4-21.7-19.7-.7-.6-5.8-3.7l-1-.3q-2.9 0-15.6-.6c-12-.7-26 .7-36.3.8a.2.2 0 0 0-.1.4q3.5 4.3 6.5 9.7 4.2 7.6 9.9 15.6a1 1 0 0 0 1.1.5l32.5-2 .4-.3c3.5-6.5 12.8-4.2 17.7-1" vector-effect="non-scaling-stroke"/><path stroke="#e4e4d5" d="m1813.3 427.4-5.7-6.7q-2.4-2.2-6.4-3.3a.5.5 0 0 0-.6.7q.5 1 2 1.7" vector-effect="non-scaling-stroke"/><path stroke="#8c8e80" d="M1804.7 444zq1.8-2.3 2.8-3a.7.7 0 0 1 1 .9q-1.7 2.5-4 3a1.3 1.3 0 0 0 .3 2.6h4.7a1 1 0 0 0 1-1.3l-2.3-7.3a.5.5 0 0 0-.8-.1l-3.6 4.7.1.3zM1802.5 419.8q5.7 2.3 9 7.6.5.6 1.8 0" vector-effect="non-scaling-stroke"/><path stroke="#8e9287" d="m1801.3 399.2 14.2 2.7M1785.7 469.7q-3.2 1-5.8 1 7.2.7 14.1.6l1.2.2q3.8 1.5 7 1.3 8.6-.6 14.6-.2t11.9 0l15.5-.7" vector-effect="non-scaling-stroke"/><path stroke="#555942" d="M1815.5 402q-.8-.3-1 .1a.1.1 0 0 0 0 .2h.3l-.1.3q-.7 0-1.1.3" vector-effect="non-scaling-stroke"/><path stroke="#757b64" d="m1813.3 427.4 5.6-.7M1849 393c-14.8.3-29.7 0-44.5 1q-13.8 1-17.8.5a.3.3 0 0 0-.3.5q.8 1 1.7 1.2 5 1.5 13.2 3" vector-effect="non-scaling-stroke"/><path stroke="#8c8e80" d="M1816.1 431.1q0-1-.3-1.5l-.3-.2q-1.4-.1-2.3.5v.4q1 1.2 1.4 2.3 3.8 9.1 4 18.8 0 4.8 4.6 4.1" vector-effect="non-scaling-stroke"/><path stroke="#555942" d="m1819 426.7.7.2.2.3v.2" vector-effect="non-scaling-stroke"/><path stroke="#e4e4d5" d="M1823.2 455.5q-.4-1.2-2.4-2.6a1 1-73 0 1-.4-.8q0-4.5-1-8-2.5-7.6-3.3-13" vector-effect="non-scaling-stroke"/><path stroke="#adaf96" d="M1813.6 403q5.7.9 11.3 2.9.5.2 1.5 0a.3.3 0 0 0 .1-.6l-.8-1" vector-effect="non-scaling-stroke"/><path stroke="#c6c6ba" d="m1825.7 404.3-10.2-2.4" vector-effect="non-scaling-stroke"/><path stroke="#adaf96" d="M1820 427.4q2.6.3 3.8-1.4a.2.2 0 0 0-.2-.3l-4.7 1" vector-effect="non-scaling-stroke"/><path stroke="#555942" d="m1823 464.7-.7 1.8" vector-effect="non-scaling-stroke"/><path stroke="#757b64" d="M1820 427.4q-1.3.6-2.4 1.6a.7.7-62 0 0 .4 1.3l12 1.5a1 1-11 0 1 .7.6l.2.2a.4.4 0 0 1-.4.7q-7.7-.3-14.4-2.2" vector-effect="non-scaling-stroke"/><path stroke="#8c8e80" d="M1822.3 466.5q-1.3.9-1.4 1.8a.5.5 0 0 0 .5.6l4.8-.3" vector-effect="non-scaling-stroke"/><path stroke="#c3c2b3" d="m1829 467-6.7-.5" vector-effect="non-scaling-stroke"/><path stroke="#c6c6ba" d="M1825.5 414.3q0 .6.4 1" vector-effect="non-scaling-stroke"/><path stroke="#555942" d="M1825.5 414.3q-1.5-.5-2.5-.1a1.6 1.6-22.5 0 0-.9 2.2q2.5 5.5 7.3 7.2" vector-effect="non-scaling-stroke"/><path stroke="#e6e8dc" d="M1850.4 411.4q1.4 0 1.4-.3a2 2-79.9 0 0-1-1.5q-4.2-2.4-9.3-4.7-2.3-1-10.1-2.8-10-2.3-16.4-4.2-.6-.2-3 .6h-.8l-8.9-.8-.7.2q-.8.3-.3 1.3" vector-effect="non-scaling-stroke"/><path stroke="#555942" d="M1825.9 415.3q-1.7 0-1.4.7 1.4 3.2 3.6 5.7h.3q.2 0 .1-.4" vector-effect="non-scaling-stroke"/><path stroke="#757b64" d="m1826.2 468.6.7.1a1 1-81.2 0 1 .4.6v.3" vector-effect="non-scaling-stroke"/><path stroke="#8e9287" d="m1828.6 421.3-2.7-6" vector-effect="non-scaling-stroke"/><path stroke="#e4e4d5" d="M1829 467q-.3 1.4-2.8 1.6" vector-effect="non-scaling-stroke"/><path stroke="#c6c6ba" d="m1828.6 421.3.8 2.3" vector-effect="non-scaling-stroke"/><path stroke="#8c8e80" d="M1827.3 469.6q-3.9.4-7.7.4-1.9 0-3 1a.4.4 0 0 0 .3.7q13.7-.8 26.1-.8 1 0 1.3 1M1834.3 389.7v.7q-.2.3-.6 0-6-2.8-12-1.8-1.8.3-3.2 2.1a.3.3 0 0 0 .1.5h24" vector-effect="non-scaling-stroke"/><path stroke="#c3c2b3" d="m1836.2 467.7 2.4-.1a.5.5 78.2 0 0 .5-.7 1 1 79.9 0 0-1-.7q-7.2 0-14.1-.2-.6 0-.9-.4-.2-.3-.1-.9" vector-effect="non-scaling-stroke"/><path stroke="#e6e8dc" d="m1825.7 404.3 12 2.7" vector-effect="non-scaling-stroke"/><path stroke="#e4e4d5" d="m1827.3 469.6 8.9-1.9" vector-effect="non-scaling-stroke"/><path stroke="#adaf96" d="m1836.2 467.7-7.2-.6" vector-effect="non-scaling-stroke"/><path stroke="#757b64" d="M1836.2 419q-2.3-1.8-3.6-.6a1 1 0 0 0-.3 1l.2.5a.6.6 0 0 0 .9.4l2-1" vector-effect="non-scaling-stroke"/><path stroke="#8e9287" d="M1836.2 419q1.3 0 1.7-.9a.5.5 0 0 0-.4-.7l-5-1a1.6 1.6 0 0 0-1.8 1.8q.5 5.8 6.8 6.4a.3.3 0 0 0 .3-.6q-1.7-1.5-4.4-2.4a.3.3 0 0 1 0-.6l1.4-.1a1 1-6.8 0 0 .6-.7v-1" vector-effect="non-scaling-stroke"/><path stroke="#e6e8dc" d="M1835.4 419.3q.5-.4.8-.4" vector-effect="non-scaling-stroke"/><path stroke="#757b64" d="m1862.3 427.7-1.3-1.6a.4.4 0 0 0-.7.1q-1.3 2.3-3.7 2.4-10.9.4-21.2-1.2-5.9-.9-8.6-2.6c-2.5-1.6-10.1-9.6-4.7-12.2a3 2.7-60.6 0 1 .6-.2q3.6-.7 6.7.2a.3.3 0 0 0 .2-.5c-4.7-3.7-11-4.8-16.4-6.9a.3.3 0 0 1 .1-.5q11.5 1 20.3 7.9a4 4 68.3 0 0 1.6.7l22.5 3.5" vector-effect="non-scaling-stroke"/><path stroke="#fdfbf8" d="m1842.6 391.2-5.4-.3h-.3l-2.6-1.2" vector-effect="non-scaling-stroke"/><path stroke="#555942" d="M1838.4 447.2a1.3.6-165.8 0 0 1.1.9 1.3.6-165.8 0 0 1.4-.3 1.3.6-165.8 0 0-1.1-.9 1.3.6-165.8 0 0-1.4.3" vector-effect="non-scaling-stroke"/><path stroke="#8c8e80" d="m1842 446.5.5-1.2a1 1 0 0 0-.5-1.2q-1.4-.5-3.2-.4a1 1 0 0 0-1 1v.1a.8.8 0 0 0 1 .9q1.8-.5 2.4.9a.5.5 0 0 0 .8 0" vector-effect="non-scaling-stroke"/><path stroke="#757b64" d="M1833.3 432.3q0 1.5 1 1.6 6.3.6 12.8.5" vector-effect="non-scaling-stroke"/><path stroke="#8c8e80" d="M1847 434.4q-.1-1-.4-1-6.5-1.3-13.3-1" vector-effect="non-scaling-stroke"/><path stroke="#adaf96" d="m1847.5 395-12.3.2a.4.4 57.9 0 0-.1.7q1 .5 2.6.2" vector-effect="non-scaling-stroke"/><path stroke="#8e9287" d="M1829.4 423.6q3.8 1.6 7.6 2 12.4 1.3 19.8 1.3a.8.8-29.8 0 0 .4-1.5l-.7-.4-1-1-2.8-4.5a1.6 1.5 87.4 0 0-.7-.6l-2.6-1.3q-11.8-2.5-23.9-3.4" vector-effect="non-scaling-stroke"/><path stroke="#adaf96" d="M1837.8 407q-1.1 0-1.6.2a.5.5 0 0 0 0 .8c3.6 2.3 7.8 2 11.6 3.6" vector-effect="non-scaling-stroke"/><path stroke="#555942" d="m1848.9 389-11.7-10.8h-.3a.2.2 0 0 0 0 .4l11.6 11" vector-effect="non-scaling-stroke"/><path stroke="#c6c6ba" d="m1837.7 396.1 10-.2a.5.5 0 0 0 .4-.7q-.1-.2-.6-.2M1848.6 410.6l-10.8-3.6" vector-effect="non-scaling-stroke"/><path stroke="#e4e4d5" d="M1857.6 433.4q-11.6-3.2-25-3.8a1 1 3.3 0 0-.8.9q-.2 1.7 1.5 1.8" vector-effect="non-scaling-stroke"/><path stroke="#8e9287" d="m1842.7 422.1 1.7 2.3a1 1-18.3 0 0 .8.4q1 0 1.6-.6a.8.7 27.3 0 0-.5-1.3q-1.6-.2-2.5-1.4a.5.5 52.4 0 0-.8-.1l-.2.1a.4.4 0 0 0-.1.6" vector-effect="non-scaling-stroke"/><path stroke="#555942" d="M1842.2 449q5.4 1.5 6.3-4a1 1 4.2 0 0-.6-.6h-.3a1 1 0 0 0-1 .7l-.3 1.3a1 1 88.2 0 1-.8.8l-3.3 1a.4.4 0 0 0 0 .8" vector-effect="non-scaling-stroke"/><path stroke="#757b64" d="M1823.2 455.5q12.3 1.3 25 1.1a18 18 36.7 0 0 4.7-.6c5.7-1.6 10.6-1.6 16.2-2" vector-effect="non-scaling-stroke"/><path stroke="#8e9287" d="M1844.5 420.6h2.2l.6.2q.9.8 2.3-.6a.7.7 0 0 0-.5-1.2q-2-.3-4.5.5a.6.6 0 0 0 0 1" vector-effect="non-scaling-stroke"/><path stroke="#c3c2b3" d="m1869.8 462.6-.3-.3-44.3.5-.3.3v.7l.3.3 44.3-.5.3-.2z" vector-effect="non-scaling-stroke"/><path stroke="#e6e8dc" d="M1849 393q-2.5.9-1.5 2" vector-effect="non-scaling-stroke"/><path stroke="#555942" d="M1848.6 410.6q-.9.2-.8 1" vector-effect="non-scaling-stroke"/><path stroke="#adaf96" d="m1848.9 389-.4.6" vector-effect="non-scaling-stroke"/><path stroke="#e4e4d5" d="M1847 434.4q.8-.3 1.8 1.4a1.2 1.2 0 0 0 2.2-.4l-.6-.7" vector-effect="non-scaling-stroke"/><path stroke="#8e9287" d="M1850.4 411.4q-1-.3-1.8-.8" vector-effect="non-scaling-stroke"/><path stroke="#757b64" d="M1848.5 389.6q.7 1.4 2.3 1v-.4l-2-1.2" vector-effect="non-scaling-stroke"/><path stroke="#8c8e80" d="m1871 466.6-7.7-.6-14.3 1.3a1 1 0 0 1-1-.7v-.3l.1-.1 28.6-1.8a.3.3 0 0 0 .1-.7q-4.9-2.5-6.7-6.9a1 1-12.4 0 0-.8-.5l-12.1.8-1.8.4q-3 1.1-4.2 1.2-12.5.6-25-.5a1 1 0 0 0-.6.4l-2.6 6.1M1849.2 385.9a2.3.8-147.2 0 0 1.5 2 2.3.8-147.2 0 0 2.4.5 2.3.8-147.2 0 0-1.5-2 2.3.8-147.2 0 0-2.4-.5" vector-effect="non-scaling-stroke"/><path stroke="#adaf96" d="M1850.4 434.7q2 1 3-1" vector-effect="non-scaling-stroke"/><path stroke="#c3c2b3" d="M1853.5 433.8q-2.3-1-3.1.9" vector-effect="non-scaling-stroke"/><path stroke="#757b64" d="m1847.8 411.6 9.2 4.4a.4.4 0 0 0 .3-.7l-7-4M1869.5 451.6q-6.1.4-10.6-3.5a1 1-63.5 0 1-.3-1q.2-1 1.3-2a.4.4 0 0 0-.4-.7q-3.1.4-6.5-.6a.6.6 0 0 0-.8.7l.2.7-2-1.4a.6.6 0 0 0-.8.7q.3 1 1.1 2 2.1 2 3.3 4a.4.4 0 0 1-.3.7c-4 .4-24.2 2.1-20.6-7q1.2-3 3.7-3.1 6.9-.5 14.4 1.8a1.3 1.2 49.5 0 0 .4 0l25.3-.4a1 1 89.4 0 0 .5-.5l-.2-7.4" vector-effect="non-scaling-stroke"/><path stroke="#fdfbf8" d="M1844.3 471.9q.7-.1 1.7.1a2.5 2.2 48.1 0 0 .6.1l12.2-.6a5.2 5-53.9 0 0 1.2-.1q2.8-.9 1.6-2.1" vector-effect="non-scaling-stroke"/><path stroke="#e4e4d5" d="M1853.5 433.8q.5-.2 1.3-.1" vector-effect="non-scaling-stroke"/><path stroke="#c3c2b3" d="M1856.4 471.1a.3.3 0 0 0 .1-.5q-.7-.7-1.4-.4-1 .3-.2.9.3.3 1.5 0" vector-effect="non-scaling-stroke"/><path stroke="#8c8e80" d="M1857.6 433.4q-1.4.4-2.8.3" vector-effect="non-scaling-stroke"/><path stroke="#e6e8dc" d="M1837.7 396.1q-1 1 .2 1.5 4.6 2 12.3 3.4a5.3 5-28.4 0 1 .9.3q7.1 2.6 13.5 4.2 5 1.3 7.9 2.6 6.6 2.7 7.7 3a.3.3 0 0 1 .2.4v.3a.5.5-72.8 0 1-.7.4q-5.7-2.2-10.7.4c-3 1.7-5.4 1.6-8.9 3l-1 .2-.6-.2a1 1 9.1 0 0-.7.5v.7" vector-effect="non-scaling-stroke"/><path stroke="#757b64" d="m1869.5 434-11.9-.6" vector-effect="non-scaling-stroke"/><path stroke="#8e9287" d="m1861.6 469.3 5.3-.8" vector-effect="non-scaling-stroke"/><path stroke="#8c8e80" d="M1867 468.5q-3.2-1.1-5.4.8" vector-effect="non-scaling-stroke"/><path stroke="#e6e8dc" d="M1862.3 427.7q-1 .7 0 1.8 2.2 3 7.2 4.4" vector-effect="non-scaling-stroke"/><path stroke="#757b64" d="m1854.8 433.7-.2.4a.4.4 11 0 0 .4.6q7 .5 12 .5.5 0 1.3-.6l.9-.3 7.3.2" vector-effect="non-scaling-stroke"/><path stroke="#555942" d="M1874.2 449.1V448l-.2-.2h-6.8a4.7.4.4 0 0-4.7.3v.7a4.7.4.4 0 0 4.7.5h6.8z" vector-effect="non-scaling-stroke"/><path stroke="#fdfbf8" d="M1867 468.5q.6.6 2.8.3a1 1-84.7 0 0 .6-.5l.6-1.7" vector-effect="non-scaling-stroke"/><path stroke="#e4e4d5" d="m1869.5 451.6-1.2.3a.7.7 0 0 0 0 1.4q1.5.3.8.6" vector-effect="non-scaling-stroke"/><path stroke="#8e9287" d="m1876.5 434.5-7-.6" vector-effect="non-scaling-stroke"/><path stroke="#757b64" d="M1885.6 418a1 1 0 0 0-.7-.6l-19.3.7a1 1 0 0 0-.6.7 1 1 0 0 0 .7.7l19.2-.7a1 1 0 0 0 .7-.7M1885.6 421l-19.6.3a1 1-89.4 0 0-.5.5v.3a1 1-90 0 0 .5.5l19.5-.3" vector-effect="non-scaling-stroke"/><path stroke="#e6e8dc" d="M1876.5 434.5h.8M1888 402.7q-3.7.8-7-.8-3.3-1.5-4.3-1.8c-4.6-1.2-9.4-2.8-10.8-2a.3.3 37.6 0 0 0 .5l14 4.1a1.8 1.7-19.7 0 1 .4.2q4.2 2.4 8.8 1.8" vector-effect="non-scaling-stroke"/><path stroke="#757b64" d="M1887.8 428q-1.8-1-3.3-.9-8.5.4-15-.6a.3.3 0 0 0-.2.6c5.4 2 12.6 1.6 18.4 1.3a.2.2 0 0 0 .1-.4" vector-effect="non-scaling-stroke"/><path stroke="#8e9287" d="M1908.5 414.9q0-1 .9-1.9a1 1 0 0 0 0-.8q-1.6-1.3-2.2-3.4a2 2 5.9 0 0-1.1-1.3q-3.7-2.1-5-2.5-20.2-6.6-42.4-10.4-2-.3-4.8-1.7l-1-.2-3.9.4" vector-effect="non-scaling-stroke"/><path stroke="#8c8e80" d="M1885.5 422.3q.3.7-.2 1.6a1 1-72.7 0 1-.8.4l-16.9-.4a.3.3 0 0 0-.2.5q.3.5 1.3.6 11.8.8 16.8.2h.5l3.1 1.9a1 1 45.6 0 0 1 0q2-1 3.4-3.5a1 1-56.3 0 0-.3-1.2q-.7-.6-.7-1.8a1 1 85.6 0 0-.8-.7l-1.7.3a.5.5 13.7 0 1-.5-.7l.5-1a1 1 0 0 0-1-1.4q-1 0-2 .5l-.6.6q-.4 1.4.7 1.7a.3.3 0 0 1 0 .6l-1.5.6" vector-effect="non-scaling-stroke"/><path stroke="#8e9287" d="M1889.8 469.5a1 1 0 0 0-.6-.5h-17.1a.6.6 0 0 0-.6.7 1 1 0 0 0 .6.6l17.1-.1a1 1 0 0 0 .6-.6" vector-effect="non-scaling-stroke"/><path stroke="#757b64" d="M1882 457.4q.6 0 1-.2a.5.5-46.6 0 0 0-.8q-.8-.4-1.2-.3a.7.7 38.5 0 0 .2 1.3" vector-effect="non-scaling-stroke"/><path stroke="#8e9287" d="m1857.7 416.8 3.6.5a2.1 2-50 0 0 1-.1c7-2.6 15.7-1.7 22.8-2.1 6.7-.5 14.8-.4 20.8-.5q1 0 1.6.7" vector-effect="non-scaling-stroke"/><path stroke="#c6c6ba" d="M1885 440a.8.5-63.8 0 0-.7.5.8.5-63.8 0 0 0 1 .8.5-63.8 0 0 .8-.6.8.5-63.8 0 0 0-.8" vector-effect="non-scaling-stroke"/><path stroke="#8c8e80" d="M1907.5 415.3c0 3.4.8 7.7-1.9 10.3q-3 2.9-7 3.5-5.8 1-7.6 1h-16.5a3.6 3.5 52 0 1-.8 0c-4.2-1.1-11-5.4-10.2-10.6a1 1 0 0 0-1.7-1q-1.4 1-3.1.6a.5.5 0 0 0-.5.8q1.5 1.4 2 2.7c1.4 3 3.3 3.9 6.1 5.6q5.1 3.2 10.2 3.2 11 0 21-1.2c8.4-.9 14.3-6.3 11-15.3" vector-effect="non-scaling-stroke"/><path stroke="#e4e4d5" d="M1885.5 422.3q.2-.5 0-1.2" vector-effect="non-scaling-stroke"/><path stroke="#555942" d="M1887 456q-.7-.3-1.5 0a.6.6 44 0 0 0 1q.5.2 1.5-.3a.4.4 0 0 0 0-.6" vector-effect="non-scaling-stroke"/><path stroke="#8e9287" d="M1889 412.7a.5.5 0 0 0-.6-.5h-4.2a.5.5 0 0 0-.5.6v.4a1 1 0 0 0 .5.5h4.2a.5.5 0 0 0 .5-.6z" vector-effect="non-scaling-stroke"/><path stroke="#adaf96" d="M1888 402.7q-.8.9 1.1 2" vector-effect="non-scaling-stroke"/><path stroke="#8c8e80" d="m1887 424.6 2.6.3a1 1-60.1 0 0 1-.3q1-.9 1.3-1.5a1.2 1-5.5 0 0-1.6-1.2q-1.6.7-3 .8a1 1 0 0 0-.2 1.9" vector-effect="non-scaling-stroke"/><path stroke="#8e9287" d="m1901.9 435.7-.3-.3-22.4 1.6-.3.3.6 7.8.2.2 22.5-1.6.2-.3z" vector-effect="non-scaling-stroke"/><path stroke="#8c8e80" d="m1913 439.5-.9.9-.3.8q-.2 6.7-6.9 7.7-17.6 2.7-35.4 2.7" vector-effect="non-scaling-stroke"/><path stroke="#8e9287" d="M1877.3 434.6q14.1 0 26.9-2 3.5-.5 5-.5l1.2-.2 3.3-1.6a1.6 1.4-60.3 0 1 .3-.2l7.2-1.7a.5.5 0 0 0 .3-.8l-2.7-3.4a1 1 0 0 0-1.3-.3c-2 1.2-4.8 2.1-6.6-.4a.4.4 0 0 0-.6 0c-.8 2.9-3.2 6.5-6.6 7.3-7.9 1.9-14.3 1.8-25.2 2.2q-9.1.3-16.2-5.3" vector-effect="non-scaling-stroke"/><path stroke="#e6e8dc" d="M1894.7 439.6a1 1 0 0 0-.5-.5 1 1 0 0 0-.5.5 1 1 0 0 0 .5.5 1 1 0 0 0 .5-.5" vector-effect="non-scaling-stroke"/><path stroke="#8c8e80" d="M1869 454c8.7-.6 17.9-.4 26-1.5 7.7-1 15.4-1.3 23.4-4a2 2 5.8 0 0 1.1-1l.8-1.3a.5.5 0 0 0-.6-.8q-5.3 1.7-5.7-.4-.4-2.2.2-4.7" vector-effect="non-scaling-stroke"/><path stroke="#c6c6ba" d="M1889.1 404.7q3.3 1 7.9 3 2.6 1.3 5.8 1.2a1 1-11.9 0 1 .7.5q.4 1 1.2 1.4a.6.6 0 0 0 .7-.9q-.9-1-2.8-1.4a2.9 2.6-26.1 0 1-.5-.1l-14.1-5.7" vector-effect="non-scaling-stroke"/><path stroke="#8e9287" d="M1904 467a1 1 0 0 0-.7-.6l-12.7.3a1 1 0 0 0-.6.7 1 1 0 0 0 .7.7l12.7-.3a1 1 0 0 0 .6-.7" vector-effect="non-scaling-stroke"/><path stroke="#555942" d="M1903.7 425.8a1 1 0 0 0-.7-.5l-10 1.9a1 1 0 0 0-.5.7 1 1 0 0 0 .7.5l10-1.9a1 1 0 0 0 .5-.7" vector-effect="non-scaling-stroke"/><path stroke="#757b64" d="M1905.8 417.3a.6.6 0 0 0-.7-.6l-12.8.5a.6.6 0 0 0-.6.7v.4a.6.6 0 0 0 .7.6l12.8-.6a1 1 0 0 0 .6-.6zM1905.4 420.6a1 1 0 0 0-.7-.7l-10 .4a1 1 0 0 0-.7.7 1 1 0 0 0 .7.7l10-.4a1 1 0 0 0 .7-.7M1904.2 423.3a.6.6 0 0 0-.7-.6l-7.7.7a1 1 0 0 0-.5.7.6.6 0 0 0 .7.6l7.6-.7a.6.6 0 0 0 .6-.7" vector-effect="non-scaling-stroke"/><path stroke="#fdfbf8" d="m1908.5 414.9-1 .4" vector-effect="non-scaling-stroke"/><path stroke="#8c8e80" d="m1913.5 410.8-4.4-2.6a.4.4 0 0 0-.4.6q1.7 2.2 1.5 2.8a.4.4 0 0 0 .6.5l2.7-1.2zM1911.6 448.3l1.6-.6.3-.3q0-1.1-2.2.2a.4.4 0 0 0 .3.7" vector-effect="non-scaling-stroke"/><path stroke="#757b64" d="M1914.2 440.3v-.9l.4-.7q2.9-1.8 6-2.5a2 2 0 0 0 1.8-2v-3.5a1.2 1.2 0 0 0-1.6-1.1q-6.5 3-15.8 3.6a1.5 1.5 87.7 0 0-1.3 1.5v5.1a1 1 82.8 0 0 1 .8l8.1-1.9a.4.4 0 0 1 .4.6l-.2.2" vector-effect="non-scaling-stroke"/><path stroke="#e4e4d5" d="M1914.2 440.3q-.1-.8-1.2-.8" vector-effect="non-scaling-stroke"/><path stroke="#8e9287" d="M1914.7 414.5a1.4 1-64.2 0 0-1.6.8 1.4 1-64.2 0 0 .3 1.7 1.4 1-64.2 0 0 1.5-.8 1.4 1-64.2 0 0-.2-1.7" vector-effect="non-scaling-stroke"/><path stroke="#8e9287" d="m1914.6 412.5-3 1.7a1 1 76.7 0 0-.6 1q-.2 2.8 1.2 4.8l.2.5v1.7a1.2 1.2 0 0 0 1.8 1l2.2-1.3a2 2 68.4 0 0 1.1-2.4l-1.5-6.4a1 1 0 0 0-1.4-.6" vector-effect="non-scaling-stroke"/><path stroke="#8e9287" d="M1913.8 418.7v.7a1 1 0 0 0 .6.6q1 0 1.3-1 .1-1-1-1.3a1 1 0 0 0-.7.3z" vector-effect="non-scaling-stroke"/><path stroke="#c6c6ba" d="M1918.2 427.2q-2.2-.7-3.2.1a.3.3-66.6 0 0 .3.5l2.8-.2z" vector-effect="non-scaling-stroke"/><path stroke="#757b64" d="m1918.4 442.8 1.3-3.2-.1-.3h-.1a2 2 21.4 0 0-2.4 1v.2a2 2 21.4 0 0 1 2.4z" vector-effect="non-scaling-stroke"/></g></svg>