<svg xmlns="http://www.w3.org/2000/svg" viewBox="520.7 376.6 92.4 135.7"><g fill="none" stroke="#92998c" stroke-linecap="round" stroke-linejoin="round" stroke-width="2"><path d="M538.3 427.6a.8.8 20.4 0 1-1.3.6q-1.3-1.1-2-2.6a1 1 0 0 0-1.9 0l-.4.8a2 2 45.4 0 0 0 2q2 3.7 7 3.3 3.1-.2 3.3-3.5.2-4 0-5.2-1-16.1-.4-33.5a2 2 0 0 0-1.8-1.8h-.4a2.4 2.4 0 0 0-2.1 2.4zM541.5 437.2l-6-3.4a1 1 0 0 0-.7.2l-.1.3a2.9 2 29.6 0 0 1.5 3.2l1.9 1a2.9 2 29.6 0 0 3.5-.3l.1-.3a1 1 0 0 0-.2-.7" vector-effect="non-scaling-stroke"/><path d="M530.2 387.9h-.2a2 2 0 0 0-2 1.9q0 17-1 33.2c-.2 3.6.1 8 .7 10.9q1.2 6.5 7 9.8l3.9 2.2a2 2-73.5 0 1 .7 1.3q.2 5.9-.4 9.3c-2 10.9-1.3 21.9-2 32.6-.3 3.3.4 6.1.5 9.8.3 7 11.5 7.3 14.5 2.2q1.4-2.5 1.5-5.1.1-6.4-.7-18.7-.2-6.3-.2-13.3 0-2.1-1.3-8-1-4.6-.7-9.1a1 1 81.4 0 1 .8-1.1c6.3-2.6 10.4-6.7 11-14q.6-9 .4-19.2-.2-10.5-.1-11.7.2-7.7-.1-11.6a1.7 1.7 0 0 0-2.2-1.6 3 3 0 0 0-2 2.7l.6 39.6c0 6.4-3.4 9.2-8.5 12.1-2.6 1.5-3 2.4-3.3 5.5q-.4 4.7.4 10.4.8 5.1 1 8 .9 11 .9 30.3a4.5 4.5 88.4 0 1-4.3 4.5 4.3 4.3 0 0 1-4.6-4.4q.2-6.4-.2-12.9-.2-3.4 1.5-21.5l.6-4.4q.9-5.8.1-11.9a4 4-82.3 0 0-2.6-3.5c-8.2-3.4-9.6-9.3-7.6-17.3l.1-1q-1-16.4-.3-34a2 2 2.3 0 0-2-2" vector-effect="non-scaling-stroke"/><path d="M555.5 407a1 1 7.4 0 0-.5.4q-2 8.4-2 17.3 0 1.8-1 2.8a.7.7 0 0 1-1.2-.5c.2-2.8.8-6.6.8-10 0-9.3.6-18.2.3-27.4a2 2-2.1 0 0-2.1-2h-.3a2 2 0 0 0-2 2v39.7a2.6 2.6 0 0 0 3 2.6l1.3-.2a4.4 4.4-3.4 0 0 3.7-4.2l.5-20.2a.2.2 0 0 0-.2-.3zM601.8 390.2a.8.8 69.4 0 0-1.3-.6q-3 2.6-6.3 6.5a22 22 0 0 0-4.6 9.1q-4 15-4 31.2c0 7.2-.6 15 1 17.7l.8.6q1 .7 5.2 1.4 2 .3 2 4.3a.4.4-90 0 0 .4.4h6.4a.4.4 0 0 0 .4-.4z" vector-effect="non-scaling-stroke"/><path d="M591.6 461.5c-1 5.4-.7 9.7-1 15.7q-.5 6.1-.7 15.2c-.1 6.6 1.7 12.8 9.4 12 7.4-.8 7.5-9.4 7.1-15.2q-.8-14-1.5-22.7 0-.7-1.1-3v-1.1q.4-1.8 1.6-3.7c1.5-2.5 1-7 .9-10.2q-.5-12-.7-24.7c0-8.5-.5-20-.2-30 .2-3.9-1.2-11-6.4-7.2q-10.5 7.5-13.9 20.3c-3.4 13.2-3.8 29.1-3 43 .3 6 1.8 9.9 8.3 10a1.3 1.3 0 0 1 1.2 1.6" vector-effect="non-scaling-stroke"/><path d="M601 462.8q-2.3.8-5.4.8a1 1 0 0 0-1 .9l-.8 32a4 4 0 0 0 3.9 4h.6a3.7 3.6-89.2 0 0 3.7-3.6v-33.5a.7.7 0 0 0-1-.6" vector-effect="non-scaling-stroke"/></g></svg>