<svg xmlns="http://www.w3.org/2000/svg" viewBox="52.1 618.8 977.8 135.9"><g fill="none" stroke="#93998e" stroke-linecap="round" stroke-linejoin="round" stroke-width="2"><path d="M142.3 683.4q0-.7-.5-2.2-4.1-10.9-15-15.7a.4.4-87.6 0 0-.4.5q3.8 11 13 17.7a.3.3 0 0 0 .5-.4l-8.2-11a1 1-41.4 0 1 0-.7.7.7 0 0 1 1.1 0l9.2 11.9zM939.4 683.7h.3l9-12a1 1 40.6 0 1 1 0 1 1 40.8 0 1 .1.8l-8 11a.3.3 0 0 0 .4.4q9.2-6.8 12.8-17.7a.4.4 0 0 0-.5-.5q-10.7 4.9-14.7 15.8-.5 1.5-.4 2.1M122.8 685.6a.4.4 0 0 0 .4-.8q-11-8.4-23.9-6.7a.5.5 0 0 0-.2.8q9 9.3 22.8 9a.4.4 0 0 0 .3-.7l-.8-.4c-6-2-13.7-4-14.3-5.4a.4.4-3.6 0 1 .5-.6zM974.7 681.4q.2.7-1.2 1.2l-15.2 5a.2.2 0 0 0 0 .5q14.6.8 24.5-8.8.3-.3.2-.6t-.6-.4q-13.5-1.9-24.8 7.4a.2.2 0 0 0 .2.3l15.3-4.9q1.4-.4 1.6.3" vector-effect="non-scaling-stroke"/><path d="M132 690a.4.4 0 0 1 0 .8q-2.3.3-6.6 1.4-12 3-17.9 13.8-.5.9.4 1.5.1.2.4.2 15.7-1.1 23.7-13.9.5-.8 4.2-2.4l1-.2 16.9 1.2a.3.3-71.3 0 1 .2.4q-.3.4-.7.5-8.7 2.6-14.2 9.3-.8 1-3.7 5.5a1.2 1.2 0 0 0 1 1.8q14.3-1.5 19.6-14.6c1.3-3.2 4-3 7.4-3a.4.4 2.1 0 0 .5-.3v-.4a1 1 0 0 0-.7-.7l-12-.4a7 7 0 0 1-6.4-3.5l-.3-.8q-2.3-13-13.6-20.4-2.7-1.8-5.4-2.5a1.4 1.4 0 0 0-1.6 1.7 44 44 0 0 0 19.9 24.2.5.5 0 0 1-.4 1l-14.1-2.7a4 4-16.4 0 1-2-1q-9.5-9.8-23.6-10.6-3.6-.2-7 1a1 1 0 0 0-.5 1.6c7 9.8 19 12.5 30.5 10.8q3-.5 5 .7M927.7 693a.4.4 0 0 1 .1-.8q6.6-.3 15.7-1.1 2-.2 5.6 1.7a3 3-.2 0 1 1.3 1.3c4.3 7.8 13 12.1 21.8 13.5q1.2.2 1.8-.2a1.4 1.4 56.4 0 0 .4-2q-8.7-13.2-23.6-14.4a.6.6 0 0 1-.2-1.2q2-.8 4.4-.5c12 1.7 22.9-.6 30.5-10.5a1.2 1.2 29.2 0 0-.6-1.9q-2.3-.9-4.6-.9-16-.1-26.4 10.8a3 2.9-72.7 0 1-1.6.8l-13.7 2.4a.4.4 0 0 1-.3-.7l4.1-3.4q10.9-8.1 15-21.1a1.2 1.2 0 0 0-1.5-1.5 28 28 0 0 0-18.4 20.5c-.8 3.4-2.2 6-5.3 6.4q-4.4.7-13.4.5a1 1 4.3 0 0-.9.8v.2a1 1 4.1 0 0 .5.6h3.7a3.1 3 79.3 0 1 3 2q4.9 12.6 17.7 15.2c1.3.3 2.2.8 3.4 0a1 1 0 0 0 .3-1.3c-3.5-5-5.6-8.3-10.4-11.3q-4-2.6-8.4-3.9M913.3 691.6a1 1 0 0 0-.7-.8H169.1a1 1 0 0 0-.7.8 1 1 0 0 0 .7.7h743.3a1 1 0 0 0 .8-.7" vector-effect="non-scaling-stroke"/><path d="M955.8 693.6a.2.2 0 0 0-.2.4l9.3 6.2a1 1 35.1 0 1 .2 1 .8.7-55.8 0 1-1 .2l-10.4-7a.4.4 0 0 0-.6.7q7.3 9.1 18.4 10.4a.4.4 0 0 0 .4-.6c-3.6-5.2-9.9-10.4-16.1-11.3M126.4 693.7c-6.2.9-12.5 6-16 11.2a.4.4 0 0 0 .3.6q11.1-1.2 18.4-10.3a.4.4 0 0 0-.6-.6l-10.3 6.9a.8.7 56.1 0 1-1-.2 1 1-34.9 0 1 0-1l9.4-6.2a.2.2 0 0 0-.2-.4M928 697q4.8 8.6 15.2 10.7a.5.5 0 0 0 .4-.7q-4.7-7.9-13.5-11.5a.2.2 0 0 0-.2.4l7 6.1a1 1 37 0 1 .2 1 1 1-51.9 0 1-1 .2l-7.6-6.5a.3.3 5.8 0 0-.4.4M151.6 696c-5.4 1.3-10.3 6.4-13 11.3a.3.3 0 0 0 .3.4q9.7-2 15.2-10.7a.4.4 0 0 0-.6-.5l-8.4 7a1 1 49.9 0 1-1 0 .6.6 0 0 1 .1-1l7.6-6.3a.2.2 0 0 0-.2-.3" vector-effect="non-scaling-stroke"/></g></svg>