<svg xmlns="http://www.w3.org/2000/svg" viewBox="57.7 300.6 193.6 205.8"><g fill="none" stroke-linecap="round" stroke-linejoin="round" stroke-width="2"><path stroke="#8c8e80" d="m72.9 377.9 1-4.7q0-.8-1-.8t-.8.8zM77.7 390.4q-.3-.4-.7-.3-.5.1-.4.5.1.3.5.5t.6-.2q.2-.2 0-.5M82 401a1 1 0 0 0-.4-.6q-1.7-.1-3 .6a1 1-14.1 0 0-.7 1.1l.3 20a.2.2 0 0 0 .2.3h.4l.1-.2q.4-15 .2-19.3 0-1.2.8-1.5.5-.2 1.9 0l.2-.2zM82.6 465.1l-.1-8.4a1.2.7-1.2 0 0-1.2.8l.1 7a1.2.7-1.2 0 0 1.2.6" vector-effect="non-scaling-stroke"/><path stroke="#c3c2b3" d="M84.3 465.2a2.4.5-158.7 0 0 2 1.3 2.4.5-158.7 0 0 2.5.4 2.4.5-158.7 0 0-2-1.3 2.4.5-158.7 0 0-2.5-.4" vector-effect="non-scaling-stroke"/><path stroke="#8c8e80" d="m75 397.4 2.3 70.5a1 1-82.9 0 0 .6.9l27.3 8.2a.3.3 0 0 0 .4-.3l-1-73.2-.3-.4-13.4-3.3a1 1 2.4 0 1-.5-.6v-.3a.4.4.6 0 1 .4-.5l13.7 2.6.2-.2q-.4-8.6-.3-19.8 0-3.5.7-5a.4.4 0 0 0-.3-.6l-35.4-7a.1.1 0 0 0-.2 0l.4 24.7a1 1 0 0 0 .8.9l17 3.2a1 1 83.9 0 1 1 .8l.3.7a.5.5 0 0 1-.6.7L75.5 397a.4.4 3.8 0 0-.5.4M88.6 367a1.8.5-168.1 0 0 1.6 1 1.8.5-168.1 0 0 2-.2 1.8.5-168.1 0 0-1.7-.8 1.8.5-168.1 0 0-2 0" vector-effect="non-scaling-stroke"/><path stroke="#e4e4d5" d="M93.2 368a2 .3-169.9 0 0 1.9.6 2 .3-169.9 0 0 2 0 2 .3-169.9 0 0-2-.5 2 .3-169.9 0 0-2-.1" vector-effect="non-scaling-stroke"/><path stroke="#c3c2b3" d="M99.5 369.1a1.2.4-170.1 0 0 1 .6 1.2.4-170.1 0 0 1.3-.2 1.2.4-170.1 0 0-1.1-.6 1.2.4-170.1 0 0-1.2.2" vector-effect="non-scaling-stroke"/><path stroke="#8c8e80" d="M127.2 362.8q-1.8-.2-7.2 0-6.2.3-16-2.6a3.1 3 46.8 0 0-1.5 0l-29.7 6.5a.1.1 0 0 0 0 .2l33 6.5h.4q12.2-4.8 25-7.7" vector-effect="non-scaling-stroke"/><path stroke="#c3c2b3" d="M104.4 325.8q-1.2.4-1.3.6a.4.4 0 0 0 .4.7q.8 0 1.2-1z" vector-effect="non-scaling-stroke"/><path stroke="#757b64" d="m106.8 393.8.5 31.2" vector-effect="non-scaling-stroke"/><path stroke="#e4e4d5" d="m108.7 389.8-.4 3.2v.3q-.6.6-1.5.5M109.2 424q-1-.1-2 1" vector-effect="non-scaling-stroke"/><path stroke="#8c8e80" d="m107.3 425 .3 53 .4.8q.7.7 2.1.9" vector-effect="non-scaling-stroke"/><path stroke="#c3c2b3" d="M109.5 378.4q-.7.3-.8.9v10.5" vector-effect="non-scaling-stroke"/><path stroke="#8c8e80" d="M121.6 348c-7-4.1-14.7-13.6-9.4-21.8a.8.8 0 0 0-.6-1.3l-6.8-1a3 3-70.2 0 0-3.3 1.6q-4.8 7.6-1.7 15.8 1.3 3.5 4.4 6.7 3.8 4 6.2 5.1l11 5.3" vector-effect="non-scaling-stroke"/><path stroke="#adaf96" d="m108.7 389.8.3.4a1 1 5.2 0 0 .7-.5l-.2-11.3" vector-effect="non-scaling-stroke"/><path stroke="#e4e4d5" d="M110.1 479.7q-.5-2.8-.6-5.7-1-23.3 0-46.2" vector-effect="non-scaling-stroke"/><path stroke="#8c8e80" d="M109.6 427.8q-.5-1.6-.4-3.8" vector-effect="non-scaling-stroke"/><path stroke="#adaf96" d="M109.3 402.6q-.4.5 0 1.1a.4.4-45.4 0 0 .7 0v-.5a.7.3 66.5 0 0-.7-.6" vector-effect="non-scaling-stroke"/><path stroke="#757b64" d="M109.6 427.8q1.2-9.8.5-19.8a.4.4 0 0 0-.7-.3q-.2.2-.2.6V424" vector-effect="non-scaling-stroke"/><path stroke="#e4e4d5" d="m110.8 376.5-1.3 1.9" vector-effect="non-scaling-stroke"/><path stroke="#757b64" d="m107.3 359.6 13.2 1.2a.5.5 0 0 0 .2-1l-5-2a4 3.9-40.7 0 0-2.4-.2l-6 1.5a.3.3 40.8 0 0 0 .5M121.3 378.6l-10.5-2.1" vector-effect="non-scaling-stroke"/><path stroke="#8c8e80" d="M121.3 378.6q1-.4.9-1.2a1 1 0 0 0-.5-.5q-4.8-1.1-10-1.8-1 0-1.4.5-.3.3.5.9" vector-effect="non-scaling-stroke"/><path stroke="#757b64" d="m110.1 479.7 13.5 4.1a.4.4-84.1 0 0 .5-.4l-.6-5.6" vector-effect="non-scaling-stroke"/><path stroke="#8c8e80" d="M129.4 367.9q-6.9 1.8-19.2 6c-4.2 1.5-3.5 3.7-3.5 8v11.9" vector-effect="non-scaling-stroke"/><path stroke="#e4e4d5" d="M121.6 348q-1.2 1.8-4 3.3h-.9l-2.3-.2a.6.6 0 0 0-.6.9q.3.5 1 .8 4.5 2.1 8 4.6a.4.4 0 0 1 0 .7q-.6.3-1.4.3M123.5 477.8q-1.8-2.6-2-3.8-.3-3.7-.1-15.6c0-5.9-.5-12.7-.6-17.5l-.2-38c0-3 .6-5 .4-7.6q-.1-2.3.2-5.6.5-5.6 0-11.1" vector-effect="non-scaling-stroke"/><path stroke="#8c8e80" d="M140.5 333.5q-4.5-11-13.3-15.4c-7.9-4-15-.8-21.6 3.6a.3.3 0 0 0 .2.5q5 0 9.8 2.2M125.4 364.2H119l-.3.3v.3a1 1 0 0 0 .5.5l8.8-.4" vector-effect="non-scaling-stroke"/><path stroke="#8e9287" d="M137 351.5a.3.3 0 0 0 .4-.4q-5.5-8.9-11.6-16.1-4.8-5.7-11.3-8.7a1 1-66.1 0 0-.8.3q-2.9 7.2 2 13 4.7 5.8 12.7 9.7l1.9.5q3.6.2 6.8 1.7" vector-effect="non-scaling-stroke"/><path stroke="#c3c2b3" d="M127.2 362.8q.4.3.5.6a.6.4-.8 0 1-.7.4q-.9 0-1.6.4" vector-effect="non-scaling-stroke"/><path stroke="#555942" d="M128 365q-.4-.9-2.6-.8" vector-effect="non-scaling-stroke"/><path stroke="#8c8e80" d="m127.8 428 .8-18.5h-.2a1 1-87.6 0 0-.8.9l-.7 16.7a1 1-87.6 0 0 .8 1" vector-effect="non-scaling-stroke"/><path stroke="#e4e4d5" d="m140.5 333.5-.2.4q-.5.3-.8-.2c-2.1-4-5-6.8-7.7-10.3q-1.2-1.6-3.8-2.2h-1q-4.3 1.5-9 1.5-1 0-2.4 1.7" vector-effect="non-scaling-stroke"/><path stroke="#8c8e80" d="M123.5 477.8q0-23.6-.6-47.3c-.4-18.1-.3-32.7.3-49q.1-4.1 4.1-5.6l8.8-3.2" vector-effect="non-scaling-stroke"/><path stroke="#c3c2b3" d="M128 365q3.6-.4 3.3.7M131.8 411.5a1 1 0 0 0-.6-.6 1 1 0 0 0-.6.6 1 1 0 0 0 .6.5 1 1 0 0 0 .6-.6" vector-effect="non-scaling-stroke"/><path stroke="#757b64" d="M115.6 324.4q5 2.7 8.5 6.2c6.8 6.7 12.3 15.1 17.4 23.4q.4.8 2.2 2.6a1.2 1.2 0 0 0 2-1.1q-.2-.8-4.4-8.4a.6.6 85.2 0 1 .8-.9c2.7 1 3.6 4.7 4.4 7.3a.5.5 0 0 0 .8.2l.2-.1a2 2 67.3 0 0 .6-1.4l-.6-2.4q-1-2.9-5.3-13.3-.7-1.7-1.7-3" vector-effect="non-scaling-stroke"/><path stroke="#555942" d="m131.3 365.7 5.2-1.3a.3.3 0 0 0 0-.6l-9.3-1" vector-effect="non-scaling-stroke"/><path stroke="#c3c2b3" d="M130.3 478.4a2 .4-163.4 0 0 1.9 1 2 .4-163.4 0 0 2.1.2 2 .4-163.4 0 0-1.9-1 2 .4-163.4 0 0-2-.2" vector-effect="non-scaling-stroke"/><path stroke="#e4e4d5" d="m136 372.7-6.6-4.8" vector-effect="non-scaling-stroke"/><path stroke="#757b64" d="M121.4 358.4q2.8 1.2 5.7 1.8 7.8 1.5 17 2a1 1 0 0 0 .4-.6l-.4-1.4a1 1 0 0 0-1-.7q-4.4-.2-7.9-3.6a.3.3-47.6 0 1 0-.5h.4l6.3 3.3a.4.4 0 0 0 .5-.6q-1-1-2.2-1.8l-6.3-3.7q-1.1-.7-6.4-1a1 1 19.1 0 0-.8.4q-1.1 1.6-2.6 1.4h-.3l-1.5-1a1 1 0 0 1 .2-.7l4.3-.4a.3.3 0 0 0 0-.6l-5.2-2.7M136 372.7l12.5-4.2a.3.3 0 0 0 0-.7l-2.2-.6q-.8-.2-1-.6-.3-.7-.2-1.2a1 1 0 0 0-1-.8q-7.1 1.8-14.7 3.3" vector-effect="non-scaling-stroke"/><path stroke="#8c8e80" d="M146.9 379a1 1 0 0 0-.5-.5l-4.5-.3a1 1 0 0 0-.5.4 1 1 0 0 0 .4.6l4.5.4a.5.5 0 0 0 .6-.5M126 483.2l38 11.5a.7.7 0 0 0 1-.7q-.4-7.6-.2-15.8l.9-61.6a1 1-84 0 0-.6-.8l-10-2a1 1 6.5 0 1-.5-.8v-.3a1 1 0 0 1 .9-.6l10.7 2a.4.4 0 0 0 .5-.3l.5-25.3a1 1 0 0 0-.5-.7l-40.7-7.6a.6.6 5.1 0 0-.7.6V405a1 1 0 0 0 .5.6c7 1.5 16.2 2.9 24.5 5.6a1 1 0 0 1 .3.6v.3a.4.4 0 0 1-.5.3l-24.6-4.6-.2.2v74.2a1 1 0 0 0 .7 1M148.8 361.5q-.2 1.9.7 3" vector-effect="non-scaling-stroke"/><path stroke="#e4e4d5" d="m149.5 364.5-.8 1.2" vector-effect="non-scaling-stroke"/><path stroke="#757b64" d="M149.5 364.5q1 1 2 .8a.6.6 0 0 0 .2-1q-.9-1-1.3-2.4a1 1-9.2 0 0-.7-.5l-.9.1" vector-effect="non-scaling-stroke"/><path stroke="#e4e4d5" d="M153.4 354.7a1.2 1-10.4 0 0-1.2 1.3q.2.5.5.7a1 .7-68.9 0 0 1.3-.7q.1-1.3-.6-1.3" vector-effect="non-scaling-stroke"/><path stroke="#8c8e80" d="M159.3 356.7q1-1 1-1.8.1-1.2-1.1-1.2-1.7 0-2.8-1a2 2-26 0 0-1.6-.6q-7.5.6-8.4 7.6-.4 3.4 2.3 6" vector-effect="non-scaling-stroke"/><path stroke="#e4e4d5" d="M159.3 356.7q-1.5.4-2.4 0a1 1 0 0 0-1.3.3l-1.9 3.2a1 1-65.1 0 1-.8.4q-2.2-.7-3.9.2-.5.3-.2.7" vector-effect="non-scaling-stroke"/><path stroke="#757b64" d="m148.7 365.7 9.4 1.1a.4.3 85.4 0 0 .4-.4q-1.4-5 .8-9.7" vector-effect="non-scaling-stroke"/><path stroke="#8e9287" d="M147.8 345.7q-3.6-9.8-7-16.2-4.1-8-11.5-12.4c-8.2-4.7-16-3.1-23.7 2.1q-4.7 3.3-6.3 5.5c-7.6 11 .8 25.5 11 30.7a.3.3-38.2 0 1 0 .5l-41.9 10a2 2-8.2 0 0-1.4 1.9q.5 9.4.6 24.2c0 3.3 1 3.9 4 3.8a1.3 1.3 0 0 1 1.4 1.3l2.2 71.4a2 2 0 0 0 1.5 2l28.5 8.6.6.5.5.5.8.6 17.8 5.3a.8.7-45.6 0 0 .4 0q1.5-.5 2.6-.1l35 10.4q2.7.8 4 .1l26-11.9h.7l1.1.3a3 3 41.7 0 0 1.8 0l14-6.1.5-.5 1-1.4.6-.6 19.4-7.8a2.5 2.4 80.2 0 0 1.5-2.2l2.7-69.5a1 1-14.9 0 1 .4-.8q1-.6 2.7-.7a2.3 2.3 0 0 0 2-2.3q0-12.4.6-24.5c0-1.9-.3-3.4-2.3-3.7l-32-5a.3.3 0 0 1-.1-.5c5.6-3.4 8.9-9.7 9.3-16 .4-7-3.7-12.4-9.2-16.4-3.2-2.2-3.7-3.5-6.4-6.4-9.3-10.4-25.5 2.5-31.2 10.3a.5.5 0 0 1-.8 0q-1.5-2-3.7-3.4a3 3 51.3 0 0-2.4-.2c-9.5 3.2-12.7 9.3-14.5 18.5a.4.4 0 0 1-.8.1" vector-effect="non-scaling-stroke"/><path stroke="#e4e4d5" d="M155.9 487.5a.3.3 0 0 0-.3-.4.3.3 0 0 0-.3.4l.3.3z" vector-effect="non-scaling-stroke"/><path stroke="#c3c2b3" d="M156.3 370q-.9 1.6-4.3 1l-.2.1-.7.5a.5.5 0 0 0 .2.8q2.8.8 5.9.4h.1l3.5 1.4a.7.7 0 0 0 .7-1q-.5-.6-2.5-1.4-.6-.3-.8-.8t-.1-1.3" vector-effect="non-scaling-stroke"/><path stroke="#e4e4d5" d="M154.7 388.7a1.8.7-175 0 0 1.6 1 1.8.7-175 0 0 1.9-.6 1.8.7-175 0 0-1.7-1 1.8.7-175 0 0-1.8.6" vector-effect="non-scaling-stroke"/><path stroke="#555942" d="M158 369.7q-.8.3-1.7.2" vector-effect="non-scaling-stroke"/><path stroke="#8c8e80" d="M155.2 334.6q-3.7 4.7-4.3 8.8l-1 6.5a.7.7 0 0 0 .9.7q6-1.2 7.7.7a.5.5 0 0 0 .8-.1q3-7.7 5.8-12.6l3.3-5.9M160.7 480l-.4-.3a.4.4 0 0 0-.4.4v7.7a.4.4 0 0 0 .5.4.4.4 0 0 0 .4-.4zM156.3 370q-1.7-1.4-3.8-.7-13.4 4.1-25.2 8.7a.2.2 37.3 0 0 0 .4q3.8.4 6.2.9l26 5q5.1.8 8 1.8h.5l26.1-7.8a.2.2-46.9 0 0 0-.4l-36-8.2" vector-effect="non-scaling-stroke"/><path stroke="#c3c2b3" d="M168.4 332.7q-2.6-.2-5-.8-1.7-.5-3 .8-2 2-5.2 1.9" vector-effect="non-scaling-stroke"/><path stroke="#555942" d="M168.4 332.7q.1-.9-2.3-.6l.8-.3.1-.2q-.8-2.5-3-3.2h-1.2q-5.5 2-7.6 6.2" vector-effect="non-scaling-stroke"/><path stroke="#c3c2b3" d="M162.6 401.4a1 1 0 0 0-.4-.5 1 1 0 0 0-.6.4l-.3 4.8a1 1 0 0 0 .5.5 1 1 0 0 0 .5-.4z" vector-effect="non-scaling-stroke"/><path stroke="#c3c2b3" d="M162.3 393.9a2.3.6-88.3 0 0-.7 2.3 2.3.6-88.3 0 0 .5 2.3 2.3.6-88.3 0 0 .7-2.3 2.3.6-88.3 0 0-.5-2.3" vector-effect="non-scaling-stroke"/><path stroke="#8c8e80" d="M162.5 381.1a1.2.8-149.5 0 0 .7 1.3 1.2.8-149.5 0 0 1.4 0 1.2.8-149.5 0 0-.7-1.3 1.2.8-149.5 0 0-1.4 0" vector-effect="non-scaling-stroke"/><path stroke="#555942" d="m166.3 359 6.9 1v-.5l-.2-.2q-2.4-.4-4.1-1.4l-1-.2q-1 .3-1.7.7a.3.3 0 0 0 .1.6" vector-effect="non-scaling-stroke"/><path stroke="#8c8e80" d="m171.5 419-.2-.3h-.7l-.2.2-.3 70 .3.3h.6l.3-.3zM172.7 390.5a1 1 0 0 0-.8-.8 1 1 0 0 0-.8.8l.1 18.5a1 1 0 0 0 .8.8 1 1 0 0 0 .9-.8zM174 486.1h.4a1 1-9 0 0 .5-.6l-.9-26.6-.7 26.6a1 1 8.6 0 0 .4.6z" vector-effect="non-scaling-stroke"/><path stroke="#757b64" d="M163.4 352.6q1.2-1.3 2.5-1.2a.6.6 0 0 1 .5.9q-2.2 3.3-5.2 5a.4.4-65.2 0 0 .3.8q2-.4 4.1-1.7 3.7-2.3 7.3-6.7 6.8-8.1 14.4-15.4" vector-effect="non-scaling-stroke"/><path stroke="#8c8e80" d="M177 415.3q-.4 0-.4.5-.7 5.5-.3 5.5t.9-5.4q0-.6-.2-.6M177.6 404.4a1 1 0 0 0-.5-.5h-.3a.5.5 0 0 0-.6.5v3.3a1 1 0 0 0 .4.5h.4a1 1 0 0 0 .5-.5z" vector-effect="non-scaling-stroke"/><path stroke="#e6e8dc" d="M187.3 334.3h-.7a.4.4 0 0 1-.3-.7l4.4-4.4a1 1 0 0 0 0-1.5l-3.2-2.3a1 1 22.8 0 1-.4-1l.2-1a.7.7-11 0 0-1-.6l-8.5 4.8-.3.2-6.2 7.8q-3.3 4.3-3.9 8a2.7 2.6-27 0 1-.3 1q-2.7 4.8-3.8 7.2-.2.3 0 .8" vector-effect="non-scaling-stroke"/><path stroke="#8c8e80" d="M179.6 483a1.9.5-42.5 0 0-1.7.8 1.9.5-42.5 0 0-1 1.6 1.9.5-42.5 0 0 1.6-.9 1.9.5-42.5 0 0 1-1.6" vector-effect="non-scaling-stroke"/><path stroke="#757b64" d="M187 356q-5.6-.8-14.3-1-1.2 0-2.1 1.5a.5.5-64.7 0 0 .2.8q3.9 1.5 7.4 1.6a.7.5 34.3 0 0 .2 0l8.7-1.7a.6.6 0 0 0 0-1.3" vector-effect="non-scaling-stroke"/><path stroke="#555942" d="M180.5 344.1a2.2.8-49.2 0 0-2 1.2 2.2.8-49.2 0 0-1 2.2 2.2.8-49.2 0 0 2.1-1.1 2.2.8-49.2 0 0 .9-2.3" vector-effect="non-scaling-stroke"/><path stroke="#757b64" d="M195.4 355q-7.8 3.9-16.4 5.4c-3.3.6-7 0-10.1.5-2.6.4-4 2.4-7.1 1a.7.7 0 0 0-1 .5 1.1 1-74.1 0 0 .6 1.2q2.5 1 4 1.3a63 63 0 0 0 33-2.8" vector-effect="non-scaling-stroke"/><path stroke="#c3c2b3" d="M181.4 387a1.8.7-70.2 0 0-1.3 1.5 1.8.7-70.2 0 0 .1 2 1.8.7-70.2 0 0 1.3-1.5 1.8.7-70.2 0 0 0-2" vector-effect="non-scaling-stroke"/><path stroke="#8c8e80" d="M180.5 407.3q.4.1.9-.4a1 1-58.4 0 0-.3-1.4q-.4-.1-.7.2a1.2.8-60.7 0 0 .1 1.6M182.1 414.7a.4.4 0 0 0-.8 0q-.6 2.5 0 4.6a.3.3 0 0 0 .6-.1z" vector-effect="non-scaling-stroke"/><path stroke="#8c8e80" d="M167.2 493.8a.1.1 0 0 0 .2.2l26.6-12.2a2 2 0 0 0 1-1.5l1.5-72a.6.6 0 0 0-.8-.6q-4.1 1.7-10 3.1c-1.6.4-3.2 1.4-4.7 1.7q-6.8 1.7-12.9 3.5l-.4.6zM197.3 379.7a.4.4 0 0 0-.5-.3l-27.4 8.7-.2.4v24.8a.4.4 0 0 0 .5.4l27.4-8.8.2-.3z" vector-effect="non-scaling-stroke"/><path stroke="#8c8e80" d="M186 479a1 1 0 0 0-.7 0l-4.1 3.3a1 1 0 0 0-.1.6 1 1 0 0 0 .7.1l4.1-3.3a1 1 0 0 0 .1-.7" vector-effect="non-scaling-stroke"/><path stroke="#8e9287" d="M187.3 334.3q6.9-6.4 16-5.8c1 0 2.3.8 3.2.7a.4.4 0 0 0 .3-.6q-2-2-3.8-2-4.2.1-6.6-.2a.4.4 0 0 1 0-.8l5.1-.8a.4.4 0 0 0 .3-.6q-4.7-7.4-13-4.7-5.3 1.7-7.3 3.2-8 6.1-13.3 15c-2.4 4-5.2 9.3-6.8 14.6a.7.7 0 0 0 .9 1l1-.7" vector-effect="non-scaling-stroke"/><path stroke="#8c8e80" d="M186.8 412.4a2.2.8-83.4 0 0-1 2 2.2.8-83.4 0 0 .4 2.4 2.2.8-83.4 0 0 1-2.2 2.2.8-83.4 0 0-.4-2.2" vector-effect="non-scaling-stroke"/><path stroke="#757b64" d="M210.9 439c.4-12.7.8-24.2 1.8-38q1-12.6.8-25a3 3 6 0 0-2.2-2.7q-6-1.4-20.5-4.2c-3.4-.7-6.4-.7-9.6-1.2q-1.4-.2-2.6.4h-.2l-9 .3a2 1.8 48.4 0 1-.5 0l-6.2-1.7a.3.3 0 0 0-.3.6c1.8 2.3 5.4 3.1 8.3 3.7l20.2 4.2q4 .8 7.4 2.6" vector-effect="non-scaling-stroke"/><path stroke="#e4e4d5" d="M189.4 385a1 .5-48.4 0 0-1 .4 1 .5-48.4 0 0-.3 1 1 .5-48.4 0 0 1-.3 1 .5-48.4 0 0 .3-1.1" vector-effect="non-scaling-stroke"/><path stroke="#8c8e80" d="M190 478a.9.7-45.4 0 0-1.2.2.9.7-45.4 0 0 0 1 .9.7-45.4 0 0 1 0 .9.7-45.4 0 0 .1-1.2M189.2 412.6q-.2 1 .9 1.7a.5.5-59.2 0 0 .8-.2l.2-1.1.2-1.2a.5.5 81.1 0 0-.7-.5q-1.2.3-1.4 1.3" vector-effect="non-scaling-stroke"/><path stroke="#8e9287" d="m174.8 352.6 16.8 2.2a2.6 2.5 29.8 0 0 1.8-.5q5.7-4.3 6.8-5.8c3.8-5.1 6.5-11.5 2-17a3 3 62.1 0 0-3-1c-6.1 1.9-13.5 6-16.2 12-1.5 3.5-2.6 5.4-5 7.1l-3.3 2.3a.4.4 0 0 0 .1.7" vector-effect="non-scaling-stroke"/><path stroke="#c3c2b3" d="M192.3 384.4a1 1-84 0 0 1.1 1.6q.6-.4 0-1.5-.5-.9-1.1-.1" vector-effect="non-scaling-stroke"/><path stroke="#c3c2b3" d="M194.7 409.8h-1a.2.2 0 0 0-.3.2v.2a13.6.7-88.3 0 0 .3 13.7h.1a13.6.7-88.3 0 0 1.1-13.6v-.3z" vector-effect="non-scaling-stroke"/><path stroke="#8e9287" d="M195.9 321.6a1.9.7-149.2 0 0 1.2 1.6 1.9.7-149.2 0 0 2 .3 1.9.7-149.2 0 0-1.2-1.6 1.9.7-149.2 0 0-2-.3" vector-effect="non-scaling-stroke"/><path stroke="#e4e4d5" d="M198.4 362.1q1.3-4.8-3-7" vector-effect="non-scaling-stroke"/><path stroke="#8c8e80" d="m198.3 378 .9 2.3a2.5 2.2 36.2 0 1 .1.7q.4 13.1-.5 31.5-.6 11.4-1.5 54.2-.2 8-.8 15.2a.5.5 0 0 0 .6.5q.8-.2 1.4-1" vector-effect="non-scaling-stroke"/><path stroke="#c3c2b3" d="M198.9 470.3q-.6 3.8.3 7.4" vector-effect="non-scaling-stroke"/><path stroke="#e4e4d5" d="M198.5 481.3q0-1.9.7-3.6M198.9 470.3l.8-24.4M200.5 377.9l-2.2.1" vector-effect="non-scaling-stroke"/><path stroke="#adaf96" d="M199.2 477.7q1.2-4 .4-8.3a.3.3 0 0 0-.6 0l-.1.9" vector-effect="non-scaling-stroke"/><path stroke="#c3c2b3" d="M201.4 403.6q-1.3 5.3-.5 10.1.2 1.3-.6 5.4a5.2 4.6-41.8 0 0 0 .8l-.6 26" vector-effect="non-scaling-stroke"/><path stroke="#8c8e80" d="m200.8 378.3-.3-.4" vector-effect="non-scaling-stroke"/><path stroke="#e4e4d5" d="M201.4 403.6q-1.5-2.8 0-8.2M201.3 383l-.5-4.7" vector-effect="non-scaling-stroke"/><path stroke="#adaf96" d="M199.7 446h.3a.4.4 0 0 0 .4-.5q.6-5.7.7-11.5c0-6.3 1-11.4.4-17.2q0-1.3.5-5.6.5-4-.6-7.6" vector-effect="non-scaling-stroke"/><path stroke="#c3c2b3" d="m201.3 383 .1 12.4" vector-effect="non-scaling-stroke"/><path stroke="#adaf96" d="m201.5 395.4.1.3a.5.5 0 0 0 .8-.4q.3-5.3.1-10.6 0-2.4-1.2-1.6" vector-effect="non-scaling-stroke"/><path stroke="#757b64" d="m198.5 481.3 8-3.3M200.8 378.3l9.3-2.9a.4.4 0 0 0 .3-.5l-.1-.2a1 1 75.5 0 0-.6-.4q-5.3 1-8.9 2.8-.6.2-.3.8" vector-effect="non-scaling-stroke"/><path stroke="#8c8e80" d="M198.4 362.1c9-3.5 17.6-11.2 16.2-21.8q-1.3-9-10.2-9.7a.3.3 0 0 0-.3.5q3.8 5.8 1.8 11.5-2.6 7.6-10.5 12.4" vector-effect="non-scaling-stroke"/><path stroke="#e4e4d5" d="m210.9 439-.7-1.1a.4.4 0 0 0-.8.1q-.8 2.6-.4 5v.8q-.7 2-.6 4.2.3 14 0 25.3-.1 2.3-2 3.4l-.3.6q0 .7.5.7" vector-effect="non-scaling-stroke"/><path stroke="#adaf96" d="M209.3 431.4a.5.5 0 0 0-.5-.6.5.5 0 0 0-.6.5l-.3 6.8a.5.5 0 0 0 .5.6.5.5 0 0 0 .6-.5z" vector-effect="non-scaling-stroke"/><path stroke="#8c8e80" d="M206.6 478q1.7-.4 3-1.2a1 1-16.4 0 0 .5-1l.8-36.8" vector-effect="non-scaling-stroke"/><path stroke="#adaf96" d="m209.6 428 .7-22h-.1a8 1.4-88.3 0 0-1.7 7.8l-.2 6.3a8 1.4-88.3 0 0 1.2 8 .1.1 0 0 0 .1-.2" vector-effect="non-scaling-stroke"/><path stroke="#8e9287" d="M215 367.9a.6.6 0 0 0-.7-.6l-8.7.3a1 1 0 0 0-.6.6 1 1 0 0 0 .6.6l8.8-.3a1 1 0 0 0 .5-.5z" vector-effect="non-scaling-stroke"/><path stroke="#8e9287" d="m236.5 366-30.6-4.4a4 4-55.1 0 0-2.7.5q-6 3.3-13.2 4.5a.2.2 0 0 0 0 .4q9 1.5 21.3 4.5l2.3.9.9.1 22-5.7a.4.4 0 0 0 0-.8" vector-effect="non-scaling-stroke"/><path stroke="#8c8e80" d="M219 377.9a1 1 0 0 0-.8-.7 1 1 0 0 0-.7.7v11.8a1 1 0 0 0 .6.7 1 1 0 0 0 .7-.7z" vector-effect="non-scaling-stroke"/><path stroke="#c3c2b3" d="M218.3 404q-.4 1.2.3 2.3a.6.6 0 0 0 1-.2l.1-1.7.9-1.4a.6.6 0 0 0-.7-.8q-1.2.5-1.6 1.8" vector-effect="non-scaling-stroke"/><path stroke="#8c8e80" d="M223.4 464.2a2.5.6-37 0 0-2.3 1 2.5.6-37 0 0-1.7 2 2.5.6-37 0 0 2.4-1 2.5.6-37 0 0 1.6-2" vector-effect="non-scaling-stroke"/><path stroke="#8c8e80" d="m214.6 402.4-.3.4-2.7 70.8a.4.4 0 0 0 .6.5l19-7.7.3-.4 2.6-69.3a.4.4 0 0 0-.6-.4z" vector-effect="non-scaling-stroke"/><path stroke="#c3c2b3" d="M223.6 401.7a2 .7-77.1 0 0-1 1.7 2 .7-77.1 0 0 .1 2 2 .7-77.1 0 0 1-1.7 2 .7-77.1 0 0-.1-2M224.7 459.6a1.3.4-76.8 0 0-.8 1.2 1.3.4-76.8 0 0 .2 1.4 1.3.4-76.8 0 0 .7-1.2 1.3.4-76.8 0 0-.1-1.4" vector-effect="non-scaling-stroke"/><path stroke="#8c8e80" d="M226.4 403.6q.4.1 1-2.1.4-1-.3-1.2t-.8.9q-.4 2.3 0 2.4M227.6 457l-1.5 6.8h.1v.1a3.5 1.2-77.5 0 0 2-3.1v-.3a3.5 1.2-77.5 0 0-.4-3.6.1.1 0 0 0-.2 0M239.9 367.5a.3.3 0 0 0-.4-.3l-23.7 7.6-.2.3-.5 24.5a.3.3 0 0 0 .4.3l23.6-7.6.3-.3z" vector-effect="non-scaling-stroke"/><path stroke="#c3c2b3" d="M228.3 443.1a6.3.4-88.6 0 0-.5 6.3 6.3.4-88.6 0 0 .2 6.3 6.3.4-88.6 0 0 .6-6.3 6.3.4-88.6 0 0-.3-6.3" vector-effect="non-scaling-stroke"/><path stroke="#c3c2b3" d="M230.6 421.5a.4.4 0 0 0-.4-.4.4.4 0 0 0-.5.4l-.2 9a.4.4 0 0 0 .5.5.4.4 0 0 0 .4-.4z" vector-effect="non-scaling-stroke"/><path stroke="#8c8e80" d="M231.7 400.2a1 1 0 0 0-.4-.5h-.3a1 1 0 0 0-.5.4l-.6 11.2a1 1 0 0 0 .5.5h.2a1 1 0 0 0 .5-.5zM232.2 373a.7.5-32 0 0-.9 0 .7.5-32 0 0-.3.8.7.5-32 0 0 .9 0 .7.5-32 0 0 .3-.8M233 390.6a.8.6-56.9 0 0-.9.3.8.6-56.9 0 0 .1 1 .8.6-56.9 0 0 1-.3.8.6-56.9 0 0-.1-1" vector-effect="non-scaling-stroke"/><path stroke="#8c8e80" d="M237 371.1h-.6l-.2.2v.2a9 .4-88.5 0 0 .2 8.9 9 .4-88.5 0 0 .7-9v-.1z" vector-effect="non-scaling-stroke"/></g></svg>